# Blender v2.90.1 OBJ File: 'Slope.blend'
# www.blender.org
mtllib mountains_01.mtl
o Plane.002
v -86.695602 0.000002 -0.000001
v -136.003799 31.860573 64.783394
v -86.695572 -118.945976 499.984558
v -86.695572 -99.121643 416.653778
v -86.695580 -79.297318 333.323029
v -86.695587 -59.472988 249.992279
v -86.695595 -39.648655 166.661514
v -86.695602 -19.824326 83.330750
v -130.211594 18.950260 101.554466
v -135.472565 9.608301 140.679962
v -136.120148 -27.595058 295.121582
v -133.385712 -33.972324 316.087677
v -134.096252 -73.055077 470.873077
v -133.435333 -87.886276 518.201965
v -140.693085 -29.144085 374.443237
v -140.693085 -34.621647 397.467926
v -148.715942 0.025158 239.057419
v -148.715942 -7.771614 271.830811
v -149.631775 36.712593 93.079048
v -149.060913 32.128464 101.250328
v -145.923019 26.312803 124.700249
v -145.633286 25.395782 128.699814
v -150.644989 2.683460 259.093567
v -150.644989 0.805489 266.987549
v -103.131676 15.076130 21.172958
v -119.567741 23.959763 42.931698
v -102.275490 -104.136818 505.635529
v -117.855415 -95.520134 511.872253
v -102.495804 -85.976852 434.305359
v -118.296036 -79.024551 452.542725
v -102.258957 -59.733047 327.156403
v -117.822327 -46.361282 321.575562
v -103.170441 -46.552284 264.818329
v -119.645294 -37.662865 280.025696
v -102.954590 -16.308764 157.346313
v -119.213585 -1.626333 148.850067
v -101.200928 0.021444 88.750641
v -115.706261 11.209751 94.989479
v -87.765282 2.626045 1.793224
v -134.505066 33.685741 20.010658
v -103.345215 17.435209 7.444197
v -118.925140 26.051886 13.680971
v -102.178329 -34.391666 117.517914
v -102.178337 -16.395607 41.872211
v -146.939178 12.526686 100.681053
v -102.178299 -124.371994 495.746521
v -102.178314 -106.375923 420.100800
v -102.178314 -88.379868 344.455078
v -102.178322 -70.383804 268.809387
v -102.178329 -52.387730 193.163620
v -141.681152 0.807001 134.060974
v -146.456940 -7.673414 169.578217
v -147.044785 -41.445755 309.776672
v -144.562515 -47.234886 328.809204
v -145.207550 -82.713318 469.319824
v -144.607574 -96.176727 512.283875
v -151.195984 -42.851929 381.783020
v -151.195984 -47.824322 402.684296
v -158.478943 -16.372765 258.882935
v -158.478943 -23.450493 288.633881
v -159.310333 16.931246 126.367165
v -158.792114 12.769869 133.784882
v -155.943604 7.490547 155.072174
v -155.680588 6.658096 158.702881
v -160.230103 -13.959625 277.071259
v -160.230103 -15.664406 284.237244
v -131.435562 7.253691 54.291458
v -145.578644 14.183529 60.037411
v -103.149368 -14.011741 43.500042
v -117.292465 -0.568323 48.629841
v -102.178329 -60.200470 119.959244
v -102.178337 -42.204411 44.313541
v -146.939178 -13.282122 103.122391
v -102.178299 -150.180801 498.187836
v -102.178307 -132.184723 422.542084
v -102.178314 -114.188675 346.896393
v -102.178314 -96.192612 271.250702
v -102.178329 -78.196533 195.604965
v -141.681152 -25.001806 136.502304
v -146.456940 -33.482220 172.019547
v -147.044785 -67.254562 312.218048
v -144.562515 -73.043694 331.250549
v -145.207550 -108.522125 471.761169
v -144.607574 -121.985535 514.725220
v -151.195984 -68.660721 384.224365
v -151.195984 -73.633133 405.125641
v -158.478943 -42.181568 261.324280
v -158.478943 -49.259300 291.075226
v -159.310333 -8.877558 128.808487
v -158.792114 -13.038937 136.226227
v -155.943604 -18.318256 157.513519
v -155.680573 -19.150707 161.144226
v -160.230103 -39.768425 279.512604
v -160.230103 -41.473206 286.678589
v -131.435547 -18.555115 56.732792
v -145.578644 -11.625277 62.478745
v -103.149368 -39.820545 45.941368
v -117.292458 -26.377129 51.071171
v 86.695602 0.000002 -0.000001
v 136.003799 31.860573 64.783394
v 86.695572 -118.945976 499.984558
v 86.695572 -99.121643 416.653778
v 86.695580 -79.297318 333.323029
v 86.695587 -59.472988 249.992279
v 86.695595 -39.648655 166.661514
v 86.695602 -19.824326 83.330750
v 130.211594 18.950260 101.554466
v 135.472565 9.608301 140.679962
v 136.120148 -27.595058 295.121582
v 133.385712 -33.972324 316.087677
v 134.096252 -73.055077 470.873077
v 133.435333 -87.886276 518.201965
v 140.693085 -29.144085 374.443237
v 140.693085 -34.621647 397.467926
v 148.715942 0.025158 239.057419
v 148.715942 -7.771614 271.830811
v 149.631775 36.712593 93.079048
v 149.060913 32.128464 101.250328
v 145.923019 26.312803 124.700249
v 145.633286 25.395782 128.699814
v 150.644989 2.683460 259.093567
v 150.644989 0.805489 266.987549
v 103.131676 15.076130 21.172958
v 119.567741 23.959763 42.931698
v 102.275490 -104.136818 505.635529
v 117.855415 -95.520134 511.872253
v 102.495804 -85.976852 434.305359
v 118.296036 -79.024551 452.542725
v 102.258957 -59.733047 327.156403
v 117.822327 -46.361282 321.575562
v 103.170441 -46.552284 264.818329
v 119.645294 -37.662865 280.025696
v 102.954590 -16.308764 157.346313
v 119.213585 -1.626333 148.850067
v 101.200928 0.021444 88.750641
v 115.706261 11.209751 94.989479
v 87.765282 2.626045 1.793224
v 134.505066 33.685741 20.010658
v 103.345215 17.435209 7.444197
v 118.925140 26.051886 13.680971
v 102.178329 -34.391666 117.517914
v 102.178337 -16.395607 41.872211
v 146.939178 12.526686 100.681053
v 102.178299 -124.371994 495.746521
v 102.178314 -106.375923 420.100800
v 102.178314 -88.379868 344.455078
v 102.178322 -70.383804 268.809387
v 102.178329 -52.387730 193.163620
v 141.681152 0.807001 134.060974
v 146.456940 -7.673414 169.578217
v 147.044785 -41.445755 309.776672
v 144.562515 -47.234886 328.809204
v 145.207550 -82.713318 469.319824
v 144.607574 -96.176727 512.283875
v 151.195984 -42.851929 381.783020
v 151.195984 -47.824322 402.684296
v 158.478943 -16.372765 258.882935
v 158.478943 -23.450493 288.633881
v 159.310333 16.931246 126.367165
v 158.792114 12.769869 133.784882
v 155.943604 7.490547 155.072174
v 155.680588 6.658096 158.702881
v 160.230103 -13.959625 277.071259
v 160.230103 -15.664406 284.237244
v 131.435562 7.253691 54.291458
v 145.578644 14.183529 60.037411
v 103.149368 -14.011741 43.500042
v 117.292465 -0.568323 48.629841
v 102.178329 -60.200470 119.959244
v 102.178337 -42.204411 44.313541
v 146.939178 -13.282122 103.122391
v 102.178299 -150.180801 498.187836
v 102.178307 -132.184723 422.542084
v 102.178314 -114.188675 346.896393
v 102.178314 -96.192612 271.250702
v 102.178329 -78.196533 195.604965
v 141.681152 -25.001806 136.502304
v 146.456940 -33.482220 172.019547
v 147.044785 -67.254562 312.218048
v 144.562515 -73.043694 331.250549
v 145.207550 -108.522125 471.761169
v 144.607574 -121.985535 514.725220
v 151.195984 -68.660721 384.224365
v 151.195984 -73.633133 405.125641
v 158.478943 -42.181568 261.324280
v 158.478943 -49.259300 291.075226
v 159.310333 -8.877558 128.808487
v 158.792114 -13.038937 136.226227
v 155.943604 -18.318256 157.513519
v 155.680573 -19.150707 161.144226
v 160.230103 -39.768425 279.512604
v 160.230103 -41.473206 286.678589
v 131.435547 -18.555115 56.732792
v 145.578644 -11.625277 62.478745
v 103.149368 -39.820545 45.941368
v 117.292458 -26.377129 51.071171
vt 0.272895 0.574289
vt 0.245300 0.687801
vt 0.115299 0.683729
vt 0.156708 0.594380
vt 0.817210 0.685707
vt 0.599188 0.708775
vt 0.687343 0.811918
vt 0.958260 0.777338
vt 0.144417 0.277459
vt 0.432586 0.291722
vt 0.354834 0.399567
vt 0.000504 0.378226
vt 0.827454 0.297223
vt 0.947368 0.306501
vt 0.999507 0.421117
vt 0.910651 0.407174
vt 0.239296 0.913715
vt 0.237310 0.700289
vt 0.157856 0.700289
vt 0.160826 0.953920
vt 0.605353 0.240282
vt 0.811917 0.240696
vt 0.755380 0.126939
vt 0.485990 0.126297
vt 0.483618 0.578926
vt 0.364169 0.579004
vt 0.064765 0.820709
vt 0.064758 0.889334
vt 0.000544 0.782512
vt 0.026127 0.644278
vt 0.701482 0.001980
vt 0.616916 0.000505
vt 0.000502 0.846683
vt 0.000497 0.893963
vt 0.485990 0.543923
vt 0.666284 0.543996
vt 0.765022 0.379683
vt 0.593876 0.379467
vt 0.448897 0.875233
vt 0.448900 0.740405
vt 0.334297 0.715891
vt 0.335292 0.889642
vt 0.780247 0.000457
vt 0.999507 0.000465
vt 0.960757 0.166313
vt 0.793970 0.161679
vt 0.308822 0.000502
vt 0.483618 0.000533
vt 0.467081 0.158743
vt 0.239223 0.151585
vt 0.958261 0.425504
vt 0.747785 0.425416
vt 0.644012 0.579975
vt 0.843543 0.568461
vt 0.582669 0.616610
vt 0.582648 0.782512
vt 0.401059 0.722795
vt 0.414858 0.585693
vt 0.717723 0.935489
vt 0.614476 0.867247
vt 0.616770 0.844573
vt 0.715383 0.843863
vt 0.542123 0.803290
vt 0.560988 0.796345
vt 0.820987 0.984698
vt 0.814257 0.823611
vt 0.026127 0.644278
vt 0.026127 0.644278
vt 0.156708 0.594380
vt 0.156708 0.594380
vt 0.814257 0.823611
vt 0.814257 0.823611
vt 0.820987 0.984698
vt 0.820987 0.984698
vt 0.687343 0.811918
vt 0.687343 0.811918
vt 0.958260 0.777338
vt 0.958260 0.777338
vt 0.000544 0.782512
vt 0.000544 0.782512
vt 0.542123 0.803290
vt 0.542123 0.803290
vt 0.560988 0.796345
vt 0.560988 0.796345
vt 0.157856 0.700289
vt 0.157856 0.700289
vt 0.064765 0.820709
vt 0.064765 0.820709
vt 0.999507 0.421117
vt 0.999507 0.421117
vt 0.910651 0.407174
vt 0.910651 0.407174
vt 0.064758 0.889334
vt 0.064758 0.889334
vt 0.160826 0.953920
vt 0.160826 0.953920
vt 0.616770 0.844573
vt 0.616770 0.844573
vt 0.715383 0.843863
vt 0.715383 0.843863
vt 0.354834 0.399567
vt 0.354834 0.399567
vt 0.483618 0.578926
vt 0.483618 0.578926
vt 0.364169 0.579004
vt 0.364169 0.579004
vt 0.000504 0.378226
vt 0.000504 0.378226
vt 0.000502 0.846683
vt 0.000502 0.846683
vt 0.485990 0.543923
vt 0.485990 0.543923
vt 0.666284 0.543996
vt 0.666284 0.543996
vt 0.000497 0.893963
vt 0.000497 0.893963
vt 0.448897 0.875233
vt 0.448897 0.875233
vt 0.448900 0.740405
vt 0.448900 0.740405
vt 0.780247 0.000457
vt 0.780247 0.000457
vt 0.999507 0.000465
vt 0.999507 0.000465
vt 0.755380 0.126939
vt 0.755380 0.126939
vt 0.701482 0.001980
vt 0.701482 0.001980
vt 0.308822 0.000502
vt 0.308822 0.000502
vt 0.483618 0.000533
vt 0.483618 0.000533
vt 0.616916 0.000505
vt 0.616916 0.000505
vt 0.485990 0.126297
vt 0.485990 0.126297
vt 0.958261 0.425504
vt 0.958261 0.425504
vt 0.747785 0.425416
vt 0.747785 0.425416
vt 0.582669 0.616610
vt 0.582648 0.782512
vt 0.115299 0.683729
vt 0.582669 0.616610
vt 0.582648 0.782512
vt 0.115299 0.683729
vt 0.272895 0.574289
vt 0.156708 0.594380
vt 0.115299 0.683729
vt 0.245300 0.687801
vt 0.817210 0.685707
vt 0.958260 0.777338
vt 0.687343 0.811918
vt 0.599188 0.708775
vt 0.144417 0.277459
vt 0.000504 0.378226
vt 0.354834 0.399567
vt 0.432586 0.291722
vt 0.827454 0.297223
vt 0.910651 0.407174
vt 0.999507 0.421117
vt 0.947368 0.306501
vt 0.239296 0.913715
vt 0.160826 0.953920
vt 0.157856 0.700289
vt 0.237310 0.700289
vt 0.605353 0.240282
vt 0.485990 0.126297
vt 0.755380 0.126939
vt 0.811917 0.240696
vt 0.364169 0.579004
vt 0.483618 0.578926
vt 0.064758 0.889334
vt 0.064765 0.820709
vt 0.026127 0.644278
vt 0.000544 0.782512
vt 0.616916 0.000505
vt 0.701482 0.001980
vt 0.000497 0.893963
vt 0.000502 0.846683
vt 0.485990 0.543923
vt 0.593876 0.379467
vt 0.765022 0.379683
vt 0.666284 0.543996
vt 0.448897 0.875233
vt 0.335292 0.889642
vt 0.334297 0.715891
vt 0.448900 0.740405
vt 0.780247 0.000457
vt 0.793970 0.161679
vt 0.960757 0.166313
vt 0.999507 0.000465
vt 0.308822 0.000502
vt 0.239223 0.151585
vt 0.467081 0.158743
vt 0.483618 0.000533
vt 0.958261 0.425504
vt 0.843543 0.568461
vt 0.644012 0.579975
vt 0.747785 0.425416
vt 0.582669 0.616610
vt 0.414858 0.585693
vt 0.401059 0.722795
vt 0.582648 0.782512
vt 0.717723 0.935489
vt 0.715383 0.843863
vt 0.616770 0.844573
vt 0.614476 0.867247
vt 0.560988 0.796345
vt 0.542123 0.803290
vt 0.820987 0.984698
vt 0.814257 0.823611
vt 0.026127 0.644278
vt 0.156708 0.594380
vt 0.156708 0.594380
vt 0.026127 0.644278
vt 0.814257 0.823611
vt 0.820987 0.984698
vt 0.820987 0.984698
vt 0.814257 0.823611
vt 0.687343 0.811918
vt 0.958260 0.777338
vt 0.958260 0.777338
vt 0.687343 0.811918
vt 0.000544 0.782512
vt 0.000544 0.782512
vt 0.542123 0.803290
vt 0.560988 0.796345
vt 0.560988 0.796345
vt 0.542123 0.803290
vt 0.157856 0.700289
vt 0.064765 0.820709
vt 0.064765 0.820709
vt 0.157856 0.700289
vt 0.999507 0.421117
vt 0.910651 0.407174
vt 0.910651 0.407174
vt 0.999507 0.421117
vt 0.064758 0.889334
vt 0.160826 0.953920
vt 0.160826 0.953920
vt 0.064758 0.889334
vt 0.616770 0.844573
vt 0.715383 0.843863
vt 0.715383 0.843863
vt 0.616770 0.844573
vt 0.354834 0.399567
vt 0.483618 0.578926
vt 0.483618 0.578926
vt 0.354834 0.399567
vt 0.364169 0.579004
vt 0.000504 0.378226
vt 0.000504 0.378226
vt 0.364169 0.579004
vt 0.000502 0.846683
vt 0.000502 0.846683
vt 0.485990 0.543923
vt 0.666284 0.543996
vt 0.666284 0.543996
vt 0.485990 0.543923
vt 0.000497 0.893963
vt 0.000497 0.893963
vt 0.448897 0.875233
vt 0.448900 0.740405
vt 0.448900 0.740405
vt 0.448897 0.875233
vt 0.780247 0.000457
vt 0.999507 0.000465
vt 0.999507 0.000465
vt 0.780247 0.000457
vt 0.755380 0.126939
vt 0.701482 0.001980
vt 0.701482 0.001980
vt 0.755380 0.126939
vt 0.308822 0.000502
vt 0.483618 0.000533
vt 0.483618 0.000533
vt 0.308822 0.000502
vt 0.616916 0.000505
vt 0.485990 0.126297
vt 0.485990 0.126297
vt 0.616916 0.000505
vt 0.958261 0.425504
vt 0.747785 0.425416
vt 0.747785 0.425416
vt 0.958261 0.425504
vt 0.582648 0.782512
vt 0.582669 0.616610
vt 0.115299 0.683729
vt 0.582648 0.782512
vt 0.582669 0.616610
vt 0.115299 0.683729
vn 0.5840 0.7889 0.1912
vn 0.5534 0.8255 0.1110
vn -0.2144 0.9742 0.0706
vn 0.5072 0.8183 0.2703
vn 0.5464 0.8073 0.2228
vn 0.5592 0.8022 0.2092
vn -0.0302 0.9383 0.3444
vn -0.0680 0.9543 0.2911
vn 0.5816 0.7943 0.1754
vn 0.0336 0.9741 0.2237
vn 0.5859 0.7902 0.1795
vn 0.2843 0.8703 0.4021
vn 0.5777 0.7873 0.2155
vn 0.4637 0.8099 0.3593
vn 0.1017 0.9940 0.0386
vn 0.1803 0.9348 0.3061
vn -0.1435 0.9882 0.0532
vn 0.6210 0.6277 0.4694
vn -0.4688 0.8636 -0.1853
vn 0.2814 0.8482 0.4487
vn -0.4369 0.8480 -0.3000
vn 0.0439 0.9281 0.3696
vn 0.0649 0.9975 -0.0288
vn 0.2065 0.9082 0.3640
vn 0.9705 -0.2367 -0.0442
vn 0.9646 -0.2558 -0.0631
vn 0.7157 0.6805 0.1570
vn 0.6980 0.6915 0.1859
vn 0.9753 -0.2159 -0.0457
vn 0.6679 0.7232 0.1759
vn 0.9759 -0.2119 -0.0524
vn 0.6626 0.7302 0.1665
vn 0.9759 -0.2130 -0.0474
vn 0.6568 0.7317 0.1821
vn 0.9964 -0.0830 -0.0157
vn 0.6375 0.7466 0.1899
vn 0.0939 0.7201 -0.6875
vn 0.6766 0.7251 0.1277
vn 0.0969 0.4079 -0.9078
vn -0.0794 0.4057 -0.9105
vn -0.5071 0.5580 -0.6569
vn -0.4439 0.5307 -0.7220
vn -0.4552 0.5085 0.7309
vn -0.3557 0.0880 0.9304
vn -0.9853 0.0161 0.1700
vn -0.9263 0.1584 0.3418
vn -0.9409 0.0613 -0.3329
vn -0.8058 -0.0558 -0.5895
vn -0.9704 -0.0227 -0.2403
vn -0.9565 -0.0632 -0.2846
vn -0.9074 0.3684 0.2022
vn -0.9991 0.0039 0.0412
vn -0.9999 0.0013 0.0144
vn -0.9174 0.3758 0.1306
vn -0.8068 0.5738 0.1408
vn -0.9891 -0.0139 -0.1467
vn -0.3846 -0.7006 -0.6011
vn 0.9616 -0.0258 -0.2730
vn -0.7912 -0.0576 -0.6088
vn -0.7093 -0.2391 -0.6631
vn -0.8899 0.3339 0.3108
vn -0.9934 0.0107 0.1137
vn -0.9934 -0.0107 -0.1136
vn -0.9761 0.1794 -0.1228
vn -0.7736 0.4458 0.4503
vn -0.9680 0.0236 0.2499
vn -0.9999 -0.0013 -0.0136
vn -0.9517 0.3069 -0.0009
vn -0.5722 0.4307 0.6978
vn -0.8681 0.0467 0.4941
vn -0.5592 -0.3980 -0.7272
vn -0.4108 -0.0858 -0.9077
vn -0.5168 -0.4183 -0.7469
vn -0.9984 -0.0052 -0.0557
vn -0.9356 0.3529 -0.0059
vn -0.9014 0.3830 0.2020
vn -0.9982 0.0056 0.0596
vn -0.9990 -0.0041 -0.0434
vn -0.9487 0.3158 0.0161
vn 0.8291 -0.5439 -0.1294
vn 1.0000 0.0000 0.0000
vn -0.5335 0.5264 0.6620
vn -0.9531 0.0285 0.3012
vn -0.9708 -0.0226 -0.2387
vn -0.9492 0.2994 -0.0963
vn -0.5209 0.5965 0.6106
vn -0.8583 0.0483 0.5108
vn 0.8451 -0.5201 -0.1237
vn -0.5840 0.7889 0.1912
vn -0.5072 0.8183 0.2703
vn 0.2144 0.9742 0.0706
vn -0.5534 0.8255 0.1110
vn -0.5464 0.8073 0.2228
vn 0.0680 0.9543 0.2911
vn 0.0302 0.9383 0.3444
vn -0.5592 0.8022 0.2092
vn -0.0336 0.9741 0.2237
vn -0.5816 0.7943 0.1754
vn -0.2843 0.8703 0.4021
vn -0.5859 0.7902 0.1795
vn -0.4637 0.8099 0.3593
vn -0.5777 0.7873 0.2155
vn -0.1803 0.9348 0.3061
vn -0.1017 0.9940 0.0386
vn -0.6210 0.6277 0.4694
vn 0.1435 0.9882 0.0532
vn -0.2814 0.8482 0.4487
vn 0.4688 0.8636 -0.1853
vn -0.0439 0.9281 0.3696
vn 0.4369 0.8480 -0.3000
vn -0.2065 0.9082 0.3640
vn -0.0649 0.9975 -0.0288
vn -0.9705 -0.2367 -0.0442
vn -0.6980 0.6915 0.1859
vn -0.7157 0.6805 0.1570
vn -0.9646 -0.2558 -0.0631
vn -0.9753 -0.2159 -0.0457
vn -0.6679 0.7232 0.1759
vn -0.9759 -0.2119 -0.0524
vn -0.6626 0.7302 0.1665
vn -0.9759 -0.2130 -0.0474
vn -0.6568 0.7317 0.1821
vn -0.9964 -0.0830 -0.0157
vn -0.6375 0.7466 0.1899
vn -0.6766 0.7251 0.1277
vn -0.0939 0.7201 -0.6875
vn 0.0794 0.4057 -0.9105
vn -0.0969 0.4079 -0.9078
vn 0.5071 0.5580 -0.6569
vn 0.4439 0.5307 -0.7220
vn 0.4552 0.5085 0.7309
vn 0.9263 0.1584 0.3418
vn 0.9853 0.0161 0.1700
vn 0.3557 0.0880 0.9304
vn 0.9409 0.0613 -0.3329
vn 0.9565 -0.0632 -0.2846
vn 0.9704 -0.0227 -0.2403
vn 0.8058 -0.0558 -0.5895
vn 0.9074 0.3684 0.2022
vn 0.9174 0.3758 0.1306
vn 0.9999 0.0013 0.0144
vn 0.9991 0.0039 0.0412
vn 0.8068 0.5738 0.1408
vn 0.9891 -0.0139 -0.1467
vn 0.3846 -0.7006 -0.6011
vn 0.7093 -0.2391 -0.6631
vn 0.7912 -0.0576 -0.6088
vn -0.9616 -0.0258 -0.2730
vn 0.8899 0.3339 0.3108
vn 0.9761 0.1794 -0.1228
vn 0.9934 -0.0107 -0.1136
vn 0.9934 0.0107 0.1137
vn 0.7736 0.4458 0.4503
vn 0.9517 0.3069 -0.0009
vn 0.9999 -0.0013 -0.0136
vn 0.9680 0.0236 0.2499
vn 0.5722 0.4307 0.6978
vn 0.8681 0.0467 0.4941
vn 0.5592 -0.3980 -0.7272
vn 0.5168 -0.4183 -0.7469
vn 0.4108 -0.0858 -0.9077
vn 0.9356 0.3529 -0.0059
vn 0.9984 -0.0052 -0.0557
vn 0.9014 0.3830 0.2020
vn 0.9982 0.0056 0.0596
vn 0.9487 0.3158 0.0161
vn 0.9990 -0.0041 -0.0434
vn -0.8291 -0.5439 -0.1294
vn -1.0000 0.0000 0.0000
vn 0.5335 0.5264 0.6620
vn 0.9531 0.0285 0.3012
vn 0.9492 0.2994 -0.0963
vn 0.9708 -0.0226 -0.2387
vn 0.5209 0.5965 0.6106
vn 0.8583 0.0483 0.5108
vn -0.8451 -0.5201 -0.1237
usemtl Mountain_01
s 1
f 38/1/1 26/2/2 2/3/3 9/4/4
f 28/5/5 30/6/6 13/7/7 14/8/8
f 30/9/6 32/10/9 12/11/10 13/12/7
f 32/13/9 34/14/11 11/15/12 12/16/10
f 34/17/11 36/18/13 10/19/14 11/20/12
f 36/21/13 38/22/1 9/23/4 10/24/14
f 13/12/7 12/11/10 15/25/15 16/26/16
f 11/20/12 10/19/14 17/27/17 18/28/18
f 9/4/4 2/3/3 19/29/19 20/30/20
f 10/24/14 9/23/4 21/31/21 22/32/22
f 18/28/18 17/27/17 23/33/23 24/34/24
f 7/35/25 8/36/26 37/37/27 35/38/28
f 35/38/28 37/37/27 38/22/1 36/21/13
f 6/39/29 7/40/25 35/41/28 33/42/30
f 33/42/30 35/41/28 36/18/13 34/17/11
f 5/43/31 6/44/29 33/45/30 31/46/32
f 31/46/32 33/45/30 34/14/11 32/13/9
f 4/47/33 5/48/31 31/49/32 29/50/34
f 29/50/34 31/49/32 32/10/9 30/9/6
f 3/51/35 4/52/33 29/53/34 27/54/36
f 27/54/36 29/53/34 30/6/6 28/5/5
f 8/55/26 1/56/37 25/57/38 37/58/27
f 37/58/27 25/57/38 26/2/2 38/1/1
f 26/59/2 25/60/38 41/61/39 42/62/40
f 25/60/38 1/63/37 39/64/41 41/61/39
f 2/65/3 26/59/2 42/62/40 40/66/42
f 62/67/43 90/68/44 79/69/45 51/70/46
f 68/71/47 96/72/48 73/73/49 45/74/50
f 55/75/51 83/76/52 84/77/53 56/78/54
f 61/79/55 89/80/56 90/68/44 62/67/43
f 44/81/57 72/82/58 97/83/59 69/84/60
f 52/85/61 80/86/62 87/87/63 59/88/64
f 53/89/65 81/90/66 82/91/67 54/92/68
f 60/93/69 88/94/70 81/95/66 53/96/65
f 70/97/71 98/98/72 95/99/72 67/100/73
f 54/101/68 82/102/67 85/103/74 57/104/75
f 69/84/60 97/83/59 98/98/72 70/97/71
f 58/105/76 86/106/77 83/107/52 55/108/51
f 67/100/73 95/99/72 96/72/48 68/71/47
f 59/88/64 87/87/63 93/109/78 65/110/79
f 50/111/80 78/112/81 71/113/81 43/114/80
f 57/104/75 85/103/74 86/106/77 58/105/76
f 66/115/82 94/116/83 88/94/70 60/93/69
f 49/117/80 77/118/81 78/119/81 50/120/80
f 65/110/79 93/109/78 94/116/83 66/115/82
f 48/121/80 76/122/81 77/123/81 49/124/80
f 51/125/46 79/126/45 91/127/84 63/128/85
f 47/129/80 75/130/81 76/131/81 48/132/80
f 64/133/86 92/134/87 80/135/62 52/136/61
f 46/137/88 74/138/81 75/139/81 47/140/80
f 4/47/33 47/129/80 48/132/80 5/48/31
f 9/23/4 51/125/46 63/128/85 21/31/21
f 5/43/31 48/121/80 49/124/80 6/44/29
f 23/33/23 65/110/79 66/115/82 24/34/24
f 6/39/29 49/117/80 50/120/80 7/40/25
f 24/34/24 66/115/82 60/93/69 18/28/18
f 15/25/15 57/104/75 58/105/76 16/26/16
f 7/35/25 50/111/80 43/114/80 8/36/26
f 17/27/17 59/88/64 65/110/79 23/33/23
f 42/62/40 67/100/73 68/71/47 40/66/42
f 16/26/16 58/105/76 55/108/51 13/12/7
f 39/64/41 69/84/60 70/97/71 41/61/39
f 12/11/10 54/101/68 57/104/75 15/25/15
f 41/61/39 70/97/71 67/100/73 42/62/40
f 18/28/18 60/93/69 53/96/65 11/20/12
f 11/15/12 53/89/65 54/92/68 12/16/10
f 10/19/14 52/85/61 59/88/64 17/27/17
f 1/63/37 44/81/57 69/84/60 39/64/41
f 19/29/19 61/79/55 62/67/43 20/30/20
f 13/7/7 55/75/51 56/78/54 14/8/8
f 40/66/42 68/71/47 45/74/50 2/65/3
f 20/30/20 62/67/43 51/70/46 9/4/4
f 8/55/26 43/141/80 44/142/57 1/56/37
f 2/3/3 45/143/50 61/79/55 19/29/19
f 21/31/21 63/128/85 64/133/86 22/32/22
f 3/51/35 46/137/88 47/140/80 4/52/33
f 22/32/22 64/133/86 52/136/61 10/24/14
f 43/141/80 71/144/81 72/145/58 44/142/57
f 45/143/50 73/146/49 89/80/56 61/79/55
f 63/128/85 91/127/84 92/134/87 64/133/86
f 136/147/89 107/148/90 100/149/91 124/150/92
f 126/151/93 112/152/94 111/153/95 128/154/96
f 128/155/96 111/156/95 110/157/97 130/158/98
f 130/159/98 110/160/97 109/161/99 132/162/100
f 132/163/100 109/164/99 108/165/101 134/166/102
f 134/167/102 108/168/101 107/169/90 136/170/89
f 111/156/95 114/171/103 113/172/104 110/157/97
f 109/164/99 116/173/105 115/174/106 108/165/101
f 107/148/90 118/175/107 117/176/108 100/149/91
f 108/168/101 120/177/109 119/178/110 107/169/90
f 116/173/105 122/179/111 121/180/112 115/174/106
f 105/181/113 133/182/114 135/183/115 106/184/116
f 133/182/114 134/167/102 136/170/89 135/183/115
f 104/185/117 131/186/118 133/187/114 105/188/113
f 131/186/118 132/163/100 134/166/102 133/187/114
f 103/189/119 129/190/120 131/191/118 104/192/117
f 129/190/120 130/159/98 132/162/100 131/191/118
f 102/193/121 127/194/122 129/195/120 103/196/119
f 127/194/122 128/155/96 130/158/98 129/195/120
f 101/197/123 125/198/124 127/199/122 102/200/121
f 125/198/124 126/151/93 128/154/96 127/199/122
f 106/201/116 135/202/115 123/203/125 99/204/126
f 135/202/115 136/147/89 124/150/92 123/203/125
f 124/205/92 140/206/127 139/207/128 123/208/125
f 123/208/125 139/207/128 137/209/129 99/210/126
f 100/211/91 138/212/130 140/206/127 124/205/92
f 160/213/131 149/214/132 177/215/133 188/216/134
f 166/217/135 143/218/136 171/219/137 194/220/138
f 153/221/139 154/222/140 182/223/141 181/224/142
f 159/225/143 160/213/131 188/216/134 187/226/144
f 142/227/145 167/228/146 195/229/147 170/230/148
f 150/231/149 157/232/150 185/233/151 178/234/152
f 151/235/153 152/236/154 180/237/155 179/238/156
f 158/239/157 151/240/153 179/241/156 186/242/158
f 168/243/159 165/244/160 193/245/161 196/246/161
f 152/247/154 155/248/162 183/249/163 180/250/155
f 167/228/146 168/243/159 196/246/161 195/229/147
f 156/251/164 153/252/139 181/253/142 184/254/165
f 165/244/160 166/217/135 194/220/138 193/245/161
f 157/232/150 163/255/166 191/256/167 185/233/151
f 148/257/168 141/258/168 169/259/169 176/260/169
f 155/248/162 156/251/164 184/254/165 183/249/163
f 164/261/170 158/239/157 186/242/158 192/262/171
f 147/263/168 148/264/168 176/265/169 175/266/169
f 163/255/166 164/261/170 192/262/171 191/256/167
f 146/267/168 147/268/168 175/269/169 174/270/169
f 149/271/132 161/272/172 189/273/173 177/274/133
f 145/275/168 146/276/168 174/277/169 173/278/169
f 162/279/174 150/280/149 178/281/152 190/282/175
f 144/283/176 145/284/168 173/285/169 172/286/169
f 102/193/121 103/196/119 146/276/168 145/275/168
f 107/169/90 119/178/110 161/272/172 149/271/132
f 103/189/119 104/192/117 147/268/168 146/267/168
f 121/180/112 122/179/111 164/261/170 163/255/166
f 104/185/117 105/188/113 148/264/168 147/263/168
f 122/179/111 116/173/105 158/239/157 164/261/170
f 113/172/104 114/171/103 156/251/164 155/248/162
f 105/181/113 106/184/116 141/258/168 148/257/168
f 115/174/106 121/180/112 163/255/166 157/232/150
f 140/206/127 138/212/130 166/217/135 165/244/160
f 114/171/103 111/156/95 153/252/139 156/251/164
f 137/209/129 139/207/128 168/243/159 167/228/146
f 110/157/97 113/172/104 155/248/162 152/247/154
f 139/207/128 140/206/127 165/244/160 168/243/159
f 116/173/105 109/164/99 151/240/153 158/239/157
f 109/161/99 110/160/97 152/236/154 151/235/153
f 108/165/101 115/174/106 157/232/150 150/231/149
f 99/210/126 137/209/129 167/228/146 142/227/145
f 117/176/108 118/175/107 160/213/131 159/225/143
f 111/153/95 112/152/94 154/222/140 153/221/139
f 138/212/130 100/211/91 143/218/136 166/217/135
f 118/175/107 107/148/90 149/214/132 160/213/131
f 106/201/116 99/204/126 142/287/145 141/288/168
f 100/149/91 117/176/108 159/225/143 143/289/136
f 119/178/110 120/177/109 162/279/174 161/272/172
f 101/197/123 102/200/121 145/284/168 144/283/176
f 120/177/109 108/168/101 150/280/149 162/279/174
f 141/288/168 142/287/145 170/290/148 169/291/169
f 143/289/136 159/225/143 187/226/144 171/292/137
f 161/272/172 162/279/174 190/282/175 189/273/173
