# Blender v2.90.1 OBJ File: 'Slope.blend'
# www.blender.org
mtllib SnowPile_01.mtl
o Sphere.006
v -3.179919 4.423228 0.802896
v -5.705605 3.253656 0.571069
v -6.911024 1.194170 0.165019
v -6.485732 -1.203466 -0.305452
v -4.348981 -3.300859 -0.741461
v 0.193198 4.385519 0.770504
v -0.818850 4.933057 -3.966525
v -1.268815 4.136855 -7.721749
v -1.881733 2.211686 -9.407166
v -2.361061 -0.309252 -8.544562
v -2.268991 -2.786084 -5.473670
v 2.133172 4.302699 -4.076856
v 2.995225 3.071037 -7.775663
v 2.712924 0.989005 -9.420863
v 1.854639 -1.380917 -8.607098
v 0.611998 -3.423293 -5.592762
v 3.350475 3.142727 0.479663
v 5.333864 1.028820 0.020877
v 5.617516 -1.385954 -0.431976
v 4.418257 -3.433186 -0.831621
v 2.014831 -4.597978 -1.086474
v -1.202380 -4.543730 -1.031486
v 0.950930 2.678295 5.354453
v 1.576371 0.165235 8.294549
v 1.654642 -2.380090 9.028274
v 0.957881 -4.293553 7.356392
v 0.047512 -5.068514 3.734465
v -1.772884 3.302702 5.430233
v -3.590294 1.264591 8.507545
v -4.483097 -1.100600 9.335126
v -4.235285 -3.201386 7.598609
v -2.665285 -4.437900 3.823138
vt 0.666667 0.833333
vt 0.583333 1.000000
vt 0.500000 0.833333
vt 0.583333 0.000000
vt 0.666667 0.166667
vt 0.500000 0.166667
vt 0.666667 0.333333
vt 0.666667 0.500000
vt 0.500000 0.500000
vt 0.500000 0.333333
vt 0.666667 0.666667
vt 0.500000 0.666667
vt 0.416667 0.000000
vt 0.333333 0.166667
vt 0.333333 0.500000
vt 0.333333 0.333333
vt 0.333333 0.833333
vt 0.333333 0.666667
vt 0.416667 1.000000
vt 0.166214 0.499488
vt 0.166090 0.333845
vt 0.166667 0.833333
vt 0.166667 0.666667
vt 0.166667 0.166667
vt 0.250000 1.000000
vt 0.250000 0.000000
vt 0.000000 0.833333
vt 0.000000 0.666667
vt 0.000577 0.333845
vt 0.000000 0.166667
vt 0.000452 0.499488
vt 0.083333 1.000000
vt 0.083333 0.000000
vt 1.000000 0.166667
vt 1.000368 0.333469
vt 0.833333 0.333333
vt 0.833333 0.166667
vt 1.000223 0.499514
vt 1.000000 0.666667
vt 0.833333 0.666667
vt 0.833333 0.500000
vt 1.000000 0.833333
vt 0.916667 1.000000
vt 0.833333 0.833333
vt 0.916667 0.000000
vt 0.750000 1.000000
vt 0.750000 0.000000
vn -0.2621 0.9561 0.1307
vn 0.1998 0.9612 0.1900
vn -0.0709 0.9932 -0.0927
vn -0.2053 -0.9618 -0.1809
vn -0.5852 -0.7871 -0.1950
vn -0.4470 -0.7757 -0.4455
vn -0.9008 -0.3999 -0.1693
vn -0.9781 0.1958 -0.0694
vn -0.4332 0.2637 -0.8618
vn -0.5516 -0.4098 -0.7264
vn -0.7007 0.7121 0.0437
vn -0.2505 0.8347 -0.4905
vn 0.0780 -0.8955 -0.4381
vn 0.5448 0.0277 -0.8381
vn 0.3202 -0.6211 -0.7153
vn 0.4602 0.8854 -0.0656
vn 0.6312 0.6275 -0.4558
vn 0.9785 -0.2062 0.0087
vn 0.7082 -0.6995 -0.0958
vn 0.6048 0.7716 0.1970
vn 0.9210 0.3697 0.1222
vn 0.2658 -0.9508 -0.1590
vn 0.4237 0.7884 0.4459
vn 0.5462 0.4336 0.7167
vn 0.2983 -0.8389 0.4552
vn 0.0669 -0.9941 0.0854
vn 0.5108 -0.2667 0.8173
vn -0.5832 -0.6886 0.4309
vn -0.4024 -0.9129 0.0681
vn -0.3398 0.6251 0.7026
vn -0.5701 -0.0591 0.8194
vn -0.0554 0.9026 0.4269
usemtl Snow_pile
s 1
f 1/1/1 6/2/2 7/3/3
f 22/4/4 5/5/5 11/6/6
f 4/7/7 3/8/8 9/9/9 10/10/10
f 2/11/11 1/1/1 7/3/3 8/12/12
f 5/5/5 4/7/7 10/10/10 11/6/6
f 3/8/8 2/11/11 8/12/12 9/9/9
f 22/13/4 11/6/6 16/14/13
f 10/10/10 9/9/9 14/15/14 15/16/15
f 8/12/12 7/3/3 12/17/16 13/18/17
f 11/6/6 10/10/10 15/16/15 16/14/13
f 9/9/9 8/12/12 13/18/17 14/15/14
f 7/3/3 6/19/2 12/17/16
f 15/16/15 14/15/14 19/20/18 20/21/19
f 13/18/17 12/17/16 17/22/20 18/23/21
f 16/14/13 15/16/15 20/21/19 21/24/22
f 14/15/14 13/18/17 18/23/21 19/20/18
f 12/17/16 6/25/2 17/22/20
f 22/26/4 16/14/13 21/24/22
f 18/23/21 17/22/20 23/27/23 24/28/24
f 21/24/22 20/21/19 26/29/25 27/30/26
f 19/20/18 18/23/21 24/28/24 25/31/27
f 17/22/20 6/32/2 23/27/23
f 22/33/4 21/24/22 27/30/26
f 20/21/19 19/20/18 25/31/27 26/29/25
f 27/34/26 26/35/25 31/36/28 32/37/29
f 25/38/27 24/39/24 29/40/30 30/41/31
f 23/42/23 6/43/2 28/44/32
f 22/45/4 27/34/26 32/37/29
f 26/35/25 25/38/27 30/41/31 31/36/28
f 24/39/24 23/42/23 28/44/32 29/40/30
f 32/37/29 31/36/28 4/7/7 5/5/5
f 30/41/31 29/40/30 2/11/11 3/8/8
f 28/44/32 6/46/2 1/1/1
f 22/47/4 32/37/29 5/5/5
f 31/36/28 30/41/31 3/8/8 4/7/7
f 29/40/30 28/44/32 1/1/1 2/11/11
