# Blender v2.90.1 OBJ File: 'Slope.blend'
# www.blender.org
mtllib Snowboard.mtl
o Cube.002
v 0.483269 -0.095663 -1.583243
v 0.434036 -0.129917 -1.583243
v 0.468186 -0.126971 -1.583243
v 0.434037 -0.129917 1.583243
v 0.483270 -0.095663 1.583243
v 0.468186 -0.126971 1.583243
v 0.483270 0.012875 1.583243
v 0.434037 0.042679 1.583243
v 0.468186 0.034630 1.583243
v 0.434036 0.042679 -1.583243
v 0.483269 0.012875 -1.583243
v 0.468186 0.034630 -1.583243
v -0.483269 -0.095663 1.583243
v -0.434036 -0.129917 1.583243
v -0.468186 -0.126971 1.583243
v -0.434037 -0.129917 -1.583243
v -0.483270 -0.095663 -1.583243
v -0.468186 -0.126971 -1.583243
v -0.483270 0.012875 -1.583243
v -0.434037 0.042679 -1.583243
v -0.468186 0.034630 -1.583243
v -0.434036 0.042679 1.583243
v -0.483269 0.012875 1.583243
v -0.468186 0.034630 1.583243
v -0.434036 -0.074814 2.018194
v -0.483269 -0.055098 1.990053
v -0.468186 -0.074477 1.998674
v -0.243301 -0.044608 2.256613
v -0.250889 -0.024138 2.304160
v -0.248564 -0.037865 2.289593
v -0.383476 -0.055210 2.172928
v -0.412077 -0.033690 2.207930
v -0.403314 -0.049521 2.197206
v -0.247645 0.092389 1.975616
v -0.250889 0.076081 2.304160
v -0.249895 0.109619 2.203506
v -0.434036 0.065803 1.765769
v -0.483269 0.047037 1.990053
v -0.468186 0.074856 1.921341
v -0.394022 0.081317 1.888227
v -0.412077 0.066773 2.207930
v -0.406545 0.097914 2.109985
v 0.243302 -0.044608 2.256613
v 0.250889 -0.024138 2.304160
v 0.248565 -0.037865 2.289593
v 0.434037 -0.074814 2.018193
v 0.483270 -0.055098 1.990053
v 0.468187 -0.074477 1.998674
v 0.383476 -0.055210 2.172928
v 0.412077 -0.033690 2.207930
v 0.403315 -0.049521 2.197206
v 0.434037 0.065803 1.765769
v 0.483270 0.047037 1.990053
v 0.468187 0.074856 1.921341
v 0.247645 0.092389 1.975616
v 0.250889 0.076081 2.304160
v 0.249895 0.109619 2.203506
v 0.394023 0.081317 1.888227
v 0.412077 0.066773 2.207930
v 0.406546 0.097914 2.109984
v -0.243302 -0.044608 -2.256613
v -0.250889 -0.024138 -2.304160
v -0.248565 -0.037865 -2.289593
v -0.434037 -0.074814 -2.018193
v -0.483270 -0.055098 -1.990053
v -0.468186 -0.074477 -1.998674
v -0.383476 -0.055210 -2.172928
v -0.412077 -0.033690 -2.207930
v -0.403315 -0.049521 -2.197206
v -0.434037 0.065803 -1.765769
v -0.483270 0.047037 -1.990053
v -0.468186 0.074856 -1.921341
v -0.247645 0.092389 -1.975616
v -0.250889 0.076081 -2.304160
v -0.249895 0.109619 -2.203506
v -0.394022 0.081317 -1.888227
v -0.412077 0.066773 -2.207930
v -0.406546 0.097914 -2.109985
v 0.434036 -0.074814 -2.018194
v 0.483269 -0.055098 -1.990053
v 0.468186 -0.074477 -1.998674
v 0.243301 -0.044608 -2.256613
v 0.250889 -0.024138 -2.304160
v 0.248564 -0.037865 -2.289593
v 0.383476 -0.055210 -2.172928
v 0.412077 -0.033690 -2.207930
v 0.403314 -0.049521 -2.197206
v 0.247645 0.092389 -1.975616
v 0.250889 0.076081 -2.304160
v 0.249895 0.109619 -2.203506
v 0.434036 0.065803 -1.765769
v 0.483269 0.047037 -1.990053
v 0.468186 0.074856 -1.921341
v 0.394022 0.081317 -1.888227
v 0.412077 0.066773 -2.207930
v 0.406545 0.097914 -2.109984
vt 0.110659 0.704469
vt 0.092051 0.727767
vt 0.141840 0.727767
vt 0.157511 0.704469
vt 0.110659 0.932408
vt 0.120479 0.955508
vt 0.166565 0.955508
vt 0.157511 0.932408
vt 0.585175 0.079915
vt 0.689924 0.079915
vt 0.720882 0.098397
vt 0.729345 0.124296
vt 0.729345 0.162898
vt 0.545755 0.162898
vt 0.545755 0.124296
vt 0.554218 0.098397
vt 0.166565 0.681369
vt 0.120479 0.681369
vt 0.729345 0.832582
vt 0.545755 0.832582
vt 0.770655 0.830917
vt 0.954245 0.830917
vt 0.954245 0.922905
vt 0.943552 0.955630
vt 0.913907 0.973329
vt 0.810994 0.973329
vt 0.781349 0.955630
vt 0.770655 0.922905
vt 0.729345 0.871185
vt 0.720882 0.897084
vt 0.689924 0.915566
vt 0.585175 0.915566
vt 0.554217 0.897084
vt 0.545755 0.871185
vt 0.166565 0.181505
vt 0.170835 0.137148
vt 0.124861 0.137148
vt 0.120479 0.181505
vt 0.092051 0.409246
vt 0.110659 0.432544
vt 0.157511 0.432544
vt 0.141840 0.409246
vt 0.092051 0.909110
vt 0.141840 0.909110
vt 0.810994 0.018820
vt 0.913906 0.018820
vt 0.943552 0.036519
vt 0.954245 0.069244
vt 0.954245 0.161232
vt 0.770655 0.161232
vt 0.770655 0.069244
vt 0.781348 0.036519
vt 0.124861 0.999864
vt 0.170835 0.999864
vt 0.124861 0.000136
vt 0.170835 0.000136
vt 0.170835 0.637013
vt 0.124861 0.637013
vt 0.157511 0.204604
vt 0.110659 0.204604
vt 0.170835 0.500000
vt 0.166565 0.455643
vt 0.120479 0.455643
vt 0.124861 0.500000
vt 0.092050 0.227902
vt 0.141840 0.227902
vt 0.763433 0.830917
vt 0.763433 0.161232
vt 0.760243 0.830917
vt 0.760243 0.161232
vt 0.538532 0.832582
vt 0.538532 0.162898
vt 0.535343 0.832582
vt 0.535343 0.162898
vt 0.961468 0.161232
vt 0.961468 0.830917
vt 0.964658 0.161232
vt 0.964658 0.830917
vt 0.736567 0.162898
vt 0.736567 0.832582
vt 0.739757 0.162898
vt 0.739757 0.832582
vt 0.947748 0.031385
vt 0.961468 0.073372
vt 0.949601 0.029117
vt 0.964658 0.075196
vt 0.736567 0.904087
vt 0.723531 0.943984
vt 0.739757 0.918619
vt 0.724701 0.964698
vt 0.915020 0.011846
vt 0.915511 0.008765
vt 0.690401 0.963763
vt 0.690611 0.985050
vt 0.551569 0.943984
vt 0.538532 0.904087
vt 0.550399 0.964698
vt 0.535343 0.918619
vt 0.763433 0.073372
vt 0.777153 0.031385
vt 0.760243 0.075196
vt 0.775300 0.029117
vt 0.584699 0.963763
vt 0.584489 0.985050
vt 0.809881 0.011846
vt 0.809389 0.008765
vt 0.551569 0.051497
vt 0.584699 0.031718
vt 0.550399 0.030783
vt 0.584489 0.010431
vt 0.809881 0.980304
vt 0.777153 0.960765
vt 0.809390 0.983384
vt 0.775300 0.963032
vt 0.538532 0.091394
vt 0.535343 0.076862
vt 0.763433 0.918777
vt 0.760243 0.916953
vt 0.723531 0.051497
vt 0.736567 0.091394
vt 0.724701 0.030783
vt 0.739757 0.076862
vt 0.961468 0.918777
vt 0.947748 0.960765
vt 0.964658 0.916953
vt 0.949601 0.963032
vt 0.690401 0.031718
vt 0.690611 0.010431
vt 0.915020 0.980304
vt 0.915511 0.983384
vn -0.9513 -0.2646 -0.1581
vn -0.9682 -0.2495 -0.0155
vn -0.9643 0.2646 0.0117
vn -0.9268 0.3418 -0.1552
vn -0.9513 -0.2646 0.1581
vn -0.7256 -0.3185 0.6099
vn -0.6762 0.4879 0.5520
vn -0.9268 0.3418 0.1552
vn 0.0099 0.9953 0.0964
vn -0.0099 0.9953 0.0964
vn -0.0594 0.9934 0.0982
vn -0.1285 0.9846 0.1188
vn -0.1221 0.9906 0.0615
vn 0.1221 0.9906 0.0615
vn 0.1285 0.9846 0.1188
vn 0.0594 0.9934 0.0982
vn -0.6762 0.4879 -0.5520
vn -0.7256 -0.3185 -0.6099
vn -0.1221 0.9906 -0.0615
vn 0.1221 0.9906 -0.0615
vn 0.0423 -0.9971 -0.0627
vn -0.0423 -0.9971 -0.0627
vn -0.0507 -0.9893 -0.1371
vn -0.0443 -0.9870 -0.1547
vn -0.0131 -0.9857 -0.1677
vn 0.0131 -0.9857 -0.1677
vn 0.0443 -0.9870 -0.1547
vn 0.0507 -0.9893 -0.1371
vn -0.1285 0.9846 -0.1188
vn -0.0594 0.9934 -0.0982
vn -0.0099 0.9953 -0.0964
vn 0.0099 0.9953 -0.0964
vn 0.0594 0.9934 -0.0982
vn 0.1285 0.9846 -0.1188
vn 0.6762 0.4879 0.5520
vn 0.2270 0.5448 0.8072
vn 0.2379 -0.3619 0.9013
vn 0.7256 -0.3185 0.6099
vn 0.9682 -0.2495 -0.0155
vn 0.9513 -0.2646 -0.1581
vn 0.9268 0.3418 -0.1552
vn 0.9643 0.2646 0.0117
vn -0.9682 -0.2495 0.0155
vn -0.9643 0.2646 -0.0117
vn 0.0131 -0.9857 0.1677
vn -0.0131 -0.9857 0.1677
vn -0.0443 -0.9870 0.1547
vn -0.0507 -0.9893 0.1371
vn -0.0423 -0.9971 0.0627
vn 0.0423 -0.9971 0.0627
vn 0.0507 -0.9893 0.1371
vn 0.0443 -0.9870 0.1547
vn -0.2379 -0.3619 0.9013
vn -0.2270 0.5448 0.8072
vn -0.2270 0.5448 -0.8072
vn -0.2379 -0.3619 -0.9013
vn 0.9268 0.3418 0.1552
vn 0.9513 -0.2646 0.1581
vn 0.2270 0.5448 -0.8072
vn 0.6762 0.4879 -0.5520
vn 0.7256 -0.3185 -0.6099
vn 0.2379 -0.3619 -0.9013
vn 0.9682 -0.2495 0.0155
vn 0.9643 0.2646 -0.0117
vn 0.5423 -0.8386 -0.0518
vn 0.5423 -0.8386 0.0518
vn 0.5984 0.8000 -0.0441
vn 0.5984 0.8000 0.0441
vn -0.5423 -0.8386 0.0518
vn -0.5423 -0.8386 -0.0518
vn -0.5984 0.8000 0.0441
vn -0.5984 0.8000 -0.0441
vn -0.4115 -0.8275 0.3819
vn -0.5322 -0.8238 0.1952
vn -0.5746 0.8172 -0.0453
vn -0.3836 0.9184 0.0967
vn -0.1181 -0.8621 0.4927
vn -0.0847 0.9852 0.1487
vn 0.3836 0.9184 0.0967
vn 0.5746 0.8172 -0.0453
vn 0.5322 -0.8238 0.1952
vn 0.4115 -0.8275 0.3819
vn 0.0847 0.9852 0.1487
vn 0.1181 -0.8621 0.4927
vn 0.3836 0.9184 -0.0967
vn 0.0847 0.9852 -0.1487
vn 0.1181 -0.8621 -0.4927
vn 0.4115 -0.8275 -0.3819
vn 0.5746 0.8172 0.0453
vn 0.5322 -0.8238 -0.1952
vn -0.3836 0.9184 -0.0967
vn -0.5746 0.8172 0.0453
vn -0.5322 -0.8238 -0.1952
vn -0.4115 -0.8275 -0.3819
vn -0.0847 0.9852 -0.1487
vn -0.1181 -0.8621 -0.4927
usemtl snowboard
s 1
f 65/1/1 17/2/2 19/3/3 71/4/4
f 26/5/5 32/6/6 41/7/7 38/8/8
f 88/9/9 73/10/10 76/11/11 70/12/12 20/13/13 10/14/14 91/15/15 94/16/16
f 71/4/4 77/17/17 68/18/18 65/1/1
f 10/14/14 20/13/13 22/19/19 8/20/20
f 2/21/21 16/22/22 64/23/23 67/24/24 61/25/25 82/26/26 85/27/27 79/28/28
f 8/20/20 22/19/19 37/29/29 40/30/30 34/31/31 55/32/32 58/33/33 52/34/34
f 59/35/35 56/36/36 44/37/37 50/38/38
f 1/39/39 80/40/40 92/41/41 11/42/42
f 17/2/2 13/43/43 23/44/44 19/3/3
f 13/43/43 26/5/5 38/8/8 23/44/44
f 43/45/45 28/46/46 31/47/47 25/48/48 14/49/49 4/50/50 46/51/51 49/52/52
f 4/50/50 14/49/49 16/22/22 2/21/21
f 32/6/6 29/53/53 35/54/54 41/7/7
f 29/55/53 44/37/37 56/36/36 35/56/54
f 77/17/17 74/57/55 62/58/56 68/18/18
f 53/59/57 59/35/35 50/38/38 47/60/58
f 89/61/59 95/62/60 86/63/61 83/64/62
f 95/62/60 92/41/41 80/40/40 86/63/61
f 83/64/62 62/58/56 74/57/55 89/61/59
f 47/60/58 5/65/63 7/66/64 53/59/57
f 2/21/21 3/67/65 6/68/66 4/50/50
f 3/67/65 1/69/39 5/70/63 6/68/66
f 8/20/20 9/71/67 12/72/68 10/14/14
f 9/71/67 7/73/64 11/74/42 12/72/68
f 14/49/49 15/75/69 18/76/70 16/22/22
f 15/75/69 13/77/43 17/78/2 18/76/70
f 20/13/13 21/79/71 24/80/72 22/19/19
f 21/79/71 19/81/3 23/82/44 24/80/72
f 31/47/47 33/83/73 27/84/74 25/48/48
f 33/83/73 32/85/6 26/86/5 27/84/74
f 37/29/29 39/87/75 42/88/76 40/30/30
f 39/87/75 38/89/8 41/90/7 42/88/76
f 28/46/46 30/91/77 33/83/73 31/47/47
f 30/91/77 29/92/53 32/85/6 33/83/73
f 40/30/30 42/88/76 36/93/78 34/31/31
f 42/88/76 41/90/7 35/94/54 36/93/78
f 58/33/33 60/95/79 54/96/80 52/34/34
f 60/95/79 59/97/35 53/98/57 54/96/80
f 46/51/51 48/99/81 51/100/82 49/52/52
f 48/99/81 47/101/58 50/102/38 51/100/82
f 55/32/32 57/103/83 60/95/79 58/33/33
f 57/103/83 56/104/36 59/97/35 60/95/79
f 49/52/52 51/100/82 45/105/84 43/45/45
f 51/100/82 50/102/38 44/106/37 45/105/84
f 94/16/16 96/107/85 90/108/86 88/9/9
f 96/107/85 95/109/60 89/110/59 90/108/86
f 82/26/26 84/111/87 87/112/88 85/27/27
f 84/111/87 83/113/62 86/114/61 87/112/88
f 91/15/15 93/115/89 96/107/85 94/16/16
f 93/115/89 92/116/41 95/109/60 96/107/85
f 85/27/27 87/112/88 81/117/90 79/28/28
f 87/112/88 86/114/61 80/118/40 81/117/90
f 76/11/11 78/119/91 72/120/92 70/12/12
f 78/119/91 77/121/17 71/122/4 72/120/92
f 64/23/23 66/123/93 69/124/94 67/24/24
f 66/123/93 65/125/1 68/126/18 69/124/94
f 73/10/10 75/127/95 78/119/91 76/11/11
f 75/127/95 74/128/55 77/121/17 78/119/91
f 67/24/24 69/124/94 63/129/96 61/25/25
f 69/124/94 68/126/18 62/130/56 63/129/96
f 29/92/53 30/91/77 45/105/84 44/106/37
f 30/91/77 28/46/46 43/45/45 45/105/84
f 47/101/58 48/99/81 6/68/66 5/70/63
f 48/99/81 46/51/51 4/50/50 6/68/66
f 13/77/43 15/75/69 27/84/74 26/86/5
f 15/75/69 14/49/49 25/48/48 27/84/74
f 34/31/31 36/93/78 57/103/83 55/32/32
f 36/93/78 35/94/54 56/104/36 57/103/83
f 22/19/19 24/80/72 39/87/75 37/29/29
f 24/80/72 23/82/44 38/89/8 39/87/75
f 7/73/64 9/71/67 54/96/80 53/98/57
f 9/71/67 8/20/20 52/34/34 54/96/80
f 1/69/39 3/67/65 81/117/90 80/118/40
f 3/67/65 2/21/21 79/28/28 81/117/90
f 83/113/62 84/111/87 63/129/96 62/130/56
f 84/111/87 82/26/26 61/25/25 63/129/96
f 65/125/1 66/123/93 18/76/70 17/78/2
f 66/123/93 64/23/23 16/22/22 18/76/70
f 88/9/9 90/108/86 75/127/95 73/10/10
f 90/108/86 89/110/59 74/128/55 75/127/95
f 70/12/12 72/120/92 21/79/71 20/13/13
f 72/120/92 71/122/4 19/81/3 21/79/71
f 92/116/41 93/115/89 12/72/68 11/74/42
f 93/115/89 91/15/15 10/14/14 12/72/68
f 5/65/63 1/39/39 11/42/42 7/66/64
