# Blender v2.90.1 OBJ File: 'Slope.blend'
# www.blender.org
mtllib mountains_01.mtl
o Plane.002
v 259.569427 33.936783 -3.084579
v 213.561966 67.826302 -51.390213
v -72.087006 -44.964054 -3.084579
v -16.810928 -31.813913 -3.084579
v 38.465141 -18.663776 -3.084579
v 93.741219 -5.513636 -3.084579
v 149.017303 7.636507 -3.084579
v 204.293365 20.786646 -3.084579
v 189.437683 58.139305 -45.715778
v 163.486603 51.933289 -50.869789
v 61.069977 27.130457 -51.504211
v 47.251659 22.525293 -48.825356
v -55.277626 -4.009255 -49.521481
v -86.443199 -14.811016 -48.874008
v 7.341393 30.776735 -55.984169
v -7.931660 27.143286 -55.984169
v 97.342415 49.305679 -63.843887
v 75.602707 44.133820 -63.843887
v 194.048950 74.170341 -64.741089
v 188.798141 70.417145 -64.181839
v 173.258240 66.495491 -61.107750
v 170.602997 65.896507 -60.823898
v 83.575142 53.072441 -65.733711
v 78.338821 51.826729 -65.733711
v 244.233612 49.364326 -19.186459
v 228.897797 59.050896 -35.288338
v -76.872406 -30.782005 -18.347723
v -81.657799 -22.340927 -33.610867
v -29.633165 -18.414656 -18.563547
v -42.455395 -10.756371 -34.042511
v 41.393982 -0.803044 -18.331507
v 44.322819 11.316708 -33.578430
v 82.850800 7.495140 -19.224459
v 71.960388 16.766569 -35.364334
v 153.840408 28.818384 -19.012981
v 158.663513 41.974045 -34.941383
v 199.341492 39.653816 -17.294979
v 194.389587 50.494766 -31.505379
v 258.183990 36.502411 -4.132510
v 243.827789 66.655449 -49.921940
v 253.398590 50.684456 -19.395653
v 248.613159 59.125534 -34.658798
v 182.028915 9.387516 -18.252508
v 232.207230 21.324900 -18.252508
v 190.442719 52.089027 -62.103241
v -68.862762 -50.299446 -18.252508
v -18.684416 -38.362049 -18.252508
v 31.493908 -26.424660 -18.252508
v 81.672241 -14.487270 -18.252508
v 131.850586 -2.549873 -18.252508
v 168.543274 43.295403 -56.952118
v 144.985489 37.661720 -61.630806
v 52.014050 15.146284 -62.206726
v 39.470108 10.965826 -59.774918
v -53.603592 -13.121624 -60.406845
v -81.894966 -22.927214 -59.819084
v 3.240492 18.456289 -66.273521
v -10.624024 15.157927 -66.273521
v 84.941322 35.276436 -73.408394
v 65.206528 30.581541 -73.408394
v 172.729279 57.848007 -74.222855
v 167.962708 54.440933 -73.715179
v 153.855942 50.880951 -70.924591
v 151.445572 50.337196 -70.666916
v 72.443718 38.695816 -75.123932
v 67.690292 37.564980 -75.123932
v 222.261398 44.190666 -46.914848
v 217.917328 51.026154 -60.770370
v 230.949554 23.653925 -19.203796
v 226.605484 36.528061 -33.059322
v 182.028931 -14.539495 -18.252508
v 232.207245 -2.602110 -18.252508
v 190.442734 28.162012 -62.103241
v -68.862762 -74.226456 -18.252508
v -18.684416 -62.289062 -18.252508
v 31.493912 -50.351669 -18.252508
v 81.672234 -38.414284 -18.252508
v 131.850586 -26.476885 -18.252508
v 168.543274 19.368387 -56.952118
v 144.985489 13.734709 -61.630806
v 52.014050 -8.780729 -62.206726
v 39.470108 -12.961187 -59.774918
v -53.603592 -37.048637 -60.406845
v -81.894966 -46.854225 -59.819084
v 3.240493 -5.470722 -66.273521
v -10.624024 -8.769085 -66.273521
v 84.941322 11.349422 -73.408394
v 65.206528 6.654528 -73.408394
v 172.729294 33.920998 -74.222855
v 167.962708 30.513926 -73.715179
v 153.855942 26.953936 -70.924591
v 151.445572 26.410192 -70.666916
v 72.443718 14.768801 -75.123932
v 67.690292 13.637964 -75.123932
v 222.261398 20.263659 -46.914848
v 217.917328 27.099146 -60.770370
v 230.949554 -0.273088 -19.203796
v 226.605499 12.601051 -33.059322
v 259.569397 33.936775 53.669395
v 213.561951 67.826302 101.975021
v -72.086998 -44.964054 53.669395
v -16.810928 -31.813915 53.669395
v 38.465137 -18.663778 53.669395
v 93.741211 -5.513639 53.669395
v 149.017288 7.636501 53.669395
v 204.293365 20.786638 53.669395
v 189.437668 58.139305 96.300583
v 163.486588 51.933289 101.454597
v 61.069969 27.130457 102.089020
v 47.251656 22.525297 99.410164
v -55.277622 -4.009253 100.106293
v -86.443192 -14.811012 99.458824
v 7.341391 30.776739 106.568977
v -7.931662 27.143290 106.568977
v 97.342407 49.305679 114.428696
v 75.602699 44.133820 114.428696
v 194.048935 74.170341 115.325897
v 188.798126 70.417145 114.766647
v 173.258224 66.495491 111.692551
v 170.602982 65.896507 111.408707
v 83.575142 53.072449 116.318527
v 78.338814 51.826729 116.318527
v 244.233582 49.364319 69.771263
v 228.897781 59.050896 85.873146
v -76.872406 -30.782003 68.932533
v -81.657791 -22.340923 84.195671
v -29.633163 -18.414654 69.148354
v -42.455391 -10.756370 84.627319
v 41.393978 -0.803045 68.916313
v 44.322815 11.316710 84.163246
v 82.850792 7.495138 69.809265
v 71.960381 16.766569 85.949142
v 153.840393 28.818380 69.597794
v 158.663498 41.974045 85.526192
v 199.341476 39.653809 67.879791
v 194.389572 50.494766 82.090187
v 258.183960 36.502403 54.717323
v 243.827759 66.655441 100.506752
v 253.398560 50.684456 69.980461
v 248.613129 59.125526 85.243607
v 182.028900 9.387510 68.837318
v 232.207214 21.324896 68.837318
v 190.442703 52.089020 112.688034
v -68.862747 -50.299446 68.837318
v -18.684414 -38.362053 68.837318
v 31.493904 -26.424664 68.837318
v 81.672234 -14.487274 68.837318
v 131.850571 -2.549879 68.837318
v 168.543259 43.295395 107.536919
v 144.985474 37.661720 112.215607
v 52.014046 15.146284 112.791534
v 39.470104 10.965826 110.359726
v -53.603588 -13.121622 110.991653
v -81.894958 -22.927210 110.403885
v 3.240490 18.456293 116.858322
v -10.624025 15.157930 116.858322
v 84.941315 35.276436 123.993195
v 65.206520 30.581545 123.993195
v 172.729263 57.848007 124.807663
v 167.962692 54.440933 124.299973
v 153.855927 50.880951 121.509399
v 151.445557 50.337204 121.251724
v 72.443718 38.695816 125.708740
v 67.690285 37.564980 125.708740
v 222.261383 44.190674 97.499657
v 217.917313 51.026146 111.355179
v 230.949539 23.653917 69.788605
v 226.605469 36.528061 83.644127
v 182.028915 -14.539503 68.837318
v 232.207230 -2.602118 68.837318
v 190.442719 28.162008 112.688034
v -68.862747 -74.226456 68.837318
v -18.684414 -62.289062 68.837318
v 31.493908 -50.351677 68.837318
v 81.672226 -38.414291 68.837318
v 131.850571 -26.476892 68.837318
v 168.543259 19.368383 107.536919
v 144.985474 13.734705 112.215607
v 52.014046 -8.780731 112.791534
v 39.470108 -12.961189 110.359726
v -53.603584 -37.048637 110.991653
v -81.894958 -46.854225 110.403885
v 3.240492 -5.470721 116.858322
v -10.624024 -8.769084 116.858322
v 84.941315 11.349421 123.993195
v 65.206520 6.654526 123.993195
v 172.729279 33.920998 124.807663
v 167.962692 30.513922 124.299973
v 153.855927 26.953936 121.509399
v 151.445557 26.410189 121.251724
v 72.443710 14.768801 125.708740
v 67.690285 13.637964 125.708740
v 222.261383 20.263655 97.499657
v 217.917313 27.099138 111.355179
v 230.949539 -0.273096 69.788605
v 226.605484 12.601044 83.644127
vt 0.272895 0.574289
vt 0.245300 0.687801
vt 0.115299 0.683729
vt 0.156708 0.594380
vt 0.817210 0.685707
vt 0.599188 0.708775
vt 0.687343 0.811918
vt 0.958260 0.777338
vt 0.144417 0.277459
vt 0.432586 0.291722
vt 0.354834 0.399567
vt 0.000504 0.378226
vt 0.827454 0.297223
vt 0.947368 0.306501
vt 0.999507 0.421117
vt 0.910651 0.407174
vt 0.239296 0.913715
vt 0.237310 0.700289
vt 0.157856 0.700289
vt 0.160826 0.953920
vt 0.605353 0.240282
vt 0.811917 0.240696
vt 0.755380 0.126939
vt 0.485990 0.126297
vt 0.483618 0.578926
vt 0.364169 0.579004
vt 0.064765 0.820709
vt 0.064758 0.889334
vt 0.000544 0.782512
vt 0.026127 0.644278
vt 0.701482 0.001980
vt 0.616916 0.000505
vt 0.000502 0.846683
vt 0.000497 0.893963
vt 0.485990 0.543923
vt 0.666284 0.543996
vt 0.765022 0.379683
vt 0.593876 0.379467
vt 0.448897 0.875233
vt 0.448900 0.740405
vt 0.334297 0.715891
vt 0.335292 0.889642
vt 0.780247 0.000457
vt 0.999507 0.000465
vt 0.960757 0.166313
vt 0.793970 0.161679
vt 0.308822 0.000502
vt 0.483618 0.000533
vt 0.467081 0.158743
vt 0.239223 0.151585
vt 0.958261 0.425504
vt 0.747785 0.425416
vt 0.644012 0.579975
vt 0.843543 0.568461
vt 0.582669 0.616610
vt 0.582648 0.782512
vt 0.401059 0.722795
vt 0.414858 0.585693
vt 0.717723 0.935489
vt 0.614476 0.867247
vt 0.616770 0.844573
vt 0.715383 0.843863
vt 0.542123 0.803290
vt 0.560988 0.796345
vt 0.820987 0.984698
vt 0.814257 0.823611
vt 0.026127 0.644278
vt 0.026127 0.644278
vt 0.156708 0.594380
vt 0.156708 0.594380
vt 0.814257 0.823611
vt 0.814257 0.823611
vt 0.820987 0.984698
vt 0.820987 0.984698
vt 0.687343 0.811918
vt 0.687343 0.811918
vt 0.958260 0.777338
vt 0.958260 0.777338
vt 0.000544 0.782512
vt 0.000544 0.782512
vt 0.542123 0.803290
vt 0.542123 0.803290
vt 0.560988 0.796345
vt 0.560988 0.796345
vt 0.157856 0.700289
vt 0.157856 0.700289
vt 0.064765 0.820709
vt 0.064765 0.820709
vt 0.999507 0.421117
vt 0.999507 0.421117
vt 0.910651 0.407174
vt 0.910651 0.407174
vt 0.064758 0.889334
vt 0.064758 0.889334
vt 0.160826 0.953920
vt 0.160826 0.953920
vt 0.616770 0.844573
vt 0.616770 0.844573
vt 0.715383 0.843863
vt 0.715383 0.843863
vt 0.354834 0.399567
vt 0.354834 0.399567
vt 0.483618 0.578926
vt 0.483618 0.578926
vt 0.364169 0.579004
vt 0.364169 0.579004
vt 0.000504 0.378226
vt 0.000504 0.378226
vt 0.000502 0.846683
vt 0.000502 0.846683
vt 0.485990 0.543923
vt 0.485990 0.543923
vt 0.666284 0.543996
vt 0.666284 0.543996
vt 0.000497 0.893963
vt 0.000497 0.893963
vt 0.448897 0.875233
vt 0.448897 0.875233
vt 0.448900 0.740405
vt 0.448900 0.740405
vt 0.780247 0.000457
vt 0.780247 0.000457
vt 0.999507 0.000465
vt 0.999507 0.000465
vt 0.755380 0.126939
vt 0.755380 0.126939
vt 0.701482 0.001980
vt 0.701482 0.001980
vt 0.308822 0.000502
vt 0.308822 0.000502
vt 0.483618 0.000533
vt 0.483618 0.000533
vt 0.616916 0.000505
vt 0.616916 0.000505
vt 0.485990 0.126297
vt 0.485990 0.126297
vt 0.958261 0.425504
vt 0.958261 0.425504
vt 0.747785 0.425416
vt 0.747785 0.425416
vt 0.582669 0.616610
vt 0.582648 0.782512
vt 0.115299 0.683729
vt 0.582669 0.616610
vt 0.582648 0.782512
vt 0.115299 0.683729
vt 0.272895 0.574289
vt 0.156708 0.594380
vt 0.115299 0.683729
vt 0.245300 0.687801
vt 0.817210 0.685707
vt 0.958260 0.777338
vt 0.687343 0.811918
vt 0.599188 0.708775
vt 0.144417 0.277459
vt 0.000504 0.378226
vt 0.354834 0.399567
vt 0.432586 0.291722
vt 0.827454 0.297223
vt 0.910651 0.407174
vt 0.999507 0.421117
vt 0.947368 0.306501
vt 0.239296 0.913715
vt 0.160826 0.953920
vt 0.157856 0.700289
vt 0.237310 0.700289
vt 0.605353 0.240282
vt 0.485990 0.126297
vt 0.755380 0.126939
vt 0.811917 0.240696
vt 0.364169 0.579004
vt 0.483618 0.578926
vt 0.064758 0.889334
vt 0.064765 0.820709
vt 0.026127 0.644278
vt 0.000544 0.782512
vt 0.616916 0.000505
vt 0.701482 0.001980
vt 0.000497 0.893963
vt 0.000502 0.846683
vt 0.485990 0.543923
vt 0.593876 0.379467
vt 0.765022 0.379683
vt 0.666284 0.543996
vt 0.448897 0.875233
vt 0.335292 0.889642
vt 0.334297 0.715891
vt 0.448900 0.740405
vt 0.780247 0.000457
vt 0.793970 0.161679
vt 0.960757 0.166313
vt 0.999507 0.000465
vt 0.308822 0.000502
vt 0.239223 0.151585
vt 0.467081 0.158743
vt 0.483618 0.000533
vt 0.958261 0.425504
vt 0.843543 0.568461
vt 0.644012 0.579975
vt 0.747785 0.425416
vt 0.582669 0.616610
vt 0.414858 0.585693
vt 0.401059 0.722795
vt 0.582648 0.782512
vt 0.717723 0.935489
vt 0.715383 0.843863
vt 0.616770 0.844573
vt 0.614476 0.867247
vt 0.560988 0.796345
vt 0.542123 0.803290
vt 0.820987 0.984698
vt 0.814257 0.823611
vt 0.026127 0.644278
vt 0.156708 0.594380
vt 0.156708 0.594380
vt 0.026127 0.644278
vt 0.814257 0.823611
vt 0.820987 0.984698
vt 0.820987 0.984698
vt 0.814257 0.823611
vt 0.687343 0.811918
vt 0.958260 0.777338
vt 0.958260 0.777338
vt 0.687343 0.811918
vt 0.000544 0.782512
vt 0.000544 0.782512
vt 0.542123 0.803290
vt 0.560988 0.796345
vt 0.560988 0.796345
vt 0.542123 0.803290
vt 0.157856 0.700289
vt 0.064765 0.820709
vt 0.064765 0.820709
vt 0.157856 0.700289
vt 0.999507 0.421117
vt 0.910651 0.407174
vt 0.910651 0.407174
vt 0.999507 0.421117
vt 0.064758 0.889334
vt 0.160826 0.953920
vt 0.160826 0.953920
vt 0.064758 0.889334
vt 0.616770 0.844573
vt 0.715383 0.843863
vt 0.715383 0.843863
vt 0.616770 0.844573
vt 0.354834 0.399567
vt 0.483618 0.578926
vt 0.483618 0.578926
vt 0.354834 0.399567
vt 0.364169 0.579004
vt 0.000504 0.378226
vt 0.000504 0.378226
vt 0.364169 0.579004
vt 0.000502 0.846683
vt 0.000502 0.846683
vt 0.485990 0.543923
vt 0.666284 0.543996
vt 0.666284 0.543996
vt 0.485990 0.543923
vt 0.000497 0.893963
vt 0.000497 0.893963
vt 0.448897 0.875233
vt 0.448900 0.740405
vt 0.448900 0.740405
vt 0.448897 0.875233
vt 0.780247 0.000457
vt 0.999507 0.000465
vt 0.999507 0.000465
vt 0.780247 0.000457
vt 0.755380 0.126939
vt 0.701482 0.001980
vt 0.701482 0.001980
vt 0.755380 0.126939
vt 0.308822 0.000502
vt 0.483618 0.000533
vt 0.483618 0.000533
vt 0.308822 0.000502
vt 0.616916 0.000505
vt 0.485990 0.126297
vt 0.485990 0.126297
vt 0.616916 0.000505
vt 0.958261 0.425504
vt 0.747785 0.425416
vt 0.747785 0.425416
vt 0.958261 0.425504
vt 0.582648 0.782512
vt 0.582669 0.616610
vt 0.115299 0.683729
vt 0.582648 0.782512
vt 0.582669 0.616610
vt 0.115299 0.683729
vn -0.1949 0.7970 0.5717
vn -0.0793 0.8388 0.5386
vn 0.0077 0.9824 -0.1864
vn -0.2783 0.8245 0.4927
vn -0.2366 0.8114 0.5344
vn -0.2195 0.8080 0.5468
vn -0.3882 0.9215 -0.0087
vn -0.3166 0.9462 -0.0668
vn -0.1714 0.8037 0.5698
vn -0.1993 0.9782 0.0575
vn -0.1783 0.7989 0.5743
vn -0.4407 0.8526 0.2807
vn -0.2308 0.7939 0.5625
vn -0.3943 0.8059 0.4416
vn 0.0101 0.9946 0.1036
vn -0.3479 0.9210 0.1752
vn 0.0290 0.9916 -0.1262
vn -0.5520 0.5826 0.5965
vn 0.2592 0.8735 -0.4120
vn -0.5285 0.8010 0.2809
vn 0.3369 0.8578 -0.3882
vn -0.4393 0.8966 0.0562
vn 0.0893 0.9930 0.0773
vn -0.4313 0.8776 0.2094
vn 0.0391 -0.2376 0.9705
vn 0.0635 -0.2535 0.9652
vn -0.1581 0.6914 0.7049
vn -0.1979 0.7010 0.6851
vn 0.0438 -0.2132 0.9760
vn -0.1784 0.7328 0.6566
vn 0.0533 -0.2087 0.9765
vn -0.1649 0.7408 0.6511
vn 0.0451 -0.2104 0.9766
vn -0.1883 0.7410 0.6445
vn 0.0221 -0.1173 0.9928
vn -0.1966 0.7529 0.6281
vn 0.8043 0.5363 0.2558
vn -0.1154 0.7373 0.6655
vn 0.8871 0.4404 0.1380
vn 0.9126 0.4084 -0.0195
vn 0.7457 0.6141 -0.2585
vn 0.7476 0.5324 -0.3969
vn -0.7845 0.4101 -0.4651
vn -0.9327 0.0000 -0.3607
vn -0.1724 0.0000 -0.9850
vn -0.2545 0.1802 -0.9501
vn 0.3967 0.0860 -0.9139
vn 0.6829 0.0000 -0.7305
vn 0.2908 0.0000 -0.9568
vn 0.3864 -0.0129 -0.9222
vn -0.2473 0.3543 -0.9018
vn -0.0601 0.0000 -0.9982
vn -0.0208 0.0000 -0.9998
vn -0.1486 0.3738 -0.9155
vn -0.1358 0.5581 -0.8186
vn 0.2127 0.0000 -0.9771
vn 0.7301 -0.6117 -0.3045
vn 0.2607 0.0000 0.9654
vn 0.7161 0.0000 -0.6980
vn 0.7641 -0.1768 -0.6203
vn -0.3750 0.3354 -0.8642
vn -0.1366 0.0000 -0.9906
vn 0.1665 0.0000 -0.9860
vn 0.1880 0.1933 -0.9629
vn -0.5731 0.3982 -0.7162
vn -0.3408 0.0000 -0.9401
vn 0.0012 0.0000 -1.0000
vn 0.0148 0.3180 -0.9480
vn -0.8133 0.3030 -0.4967
vn -0.6357 0.0000 -0.7719
vn 0.8165 -0.3228 -0.4786
vn 0.9542 0.0000 -0.2991
vn 0.8317 -0.3420 -0.4374
vn 0.0878 0.0000 -0.9961
vn 0.0497 0.3732 -0.9264
vn -0.2442 0.3817 -0.8914
vn -0.0835 0.0000 -0.9965
vn 0.0687 0.0000 -0.9976
vn 0.0178 0.3297 -0.9439
vn 0.1304 -0.5484 0.8260
vn 0.0000 0.0000 1.0000
vn -0.7023 0.4277 -0.5690
vn -0.3975 0.0000 -0.9176
vn 0.3373 0.0000 -0.9414
vn 0.1460 0.3023 -0.9419
vn -0.6819 0.5055 -0.5285
vn -0.6093 0.0000 -0.7929
vn 0.1260 -0.5298 0.8387
vn -0.1949 0.7970 -0.5717
vn -0.2783 0.8245 -0.4927
vn 0.0077 0.9824 0.1864
vn -0.0793 0.8388 -0.5386
vn -0.2366 0.8114 -0.5344
vn -0.3166 0.9462 0.0668
vn -0.3882 0.9215 0.0087
vn -0.2195 0.8080 -0.5468
vn -0.1993 0.9782 -0.0575
vn -0.1714 0.8037 -0.5698
vn -0.4407 0.8526 -0.2807
vn -0.1783 0.7989 -0.5743
vn -0.3943 0.8059 -0.4416
vn -0.2308 0.7939 -0.5625
vn -0.3479 0.9210 -0.1752
vn 0.0101 0.9946 -0.1036
vn -0.5520 0.5826 -0.5965
vn 0.0290 0.9916 0.1262
vn -0.5285 0.8010 -0.2809
vn 0.2592 0.8735 0.4120
vn -0.4393 0.8966 -0.0562
vn 0.3369 0.8578 0.3882
vn -0.4313 0.8776 -0.2094
vn 0.0893 0.9930 -0.0773
vn 0.0391 -0.2376 -0.9705
vn -0.1979 0.7010 -0.6851
vn -0.1581 0.6914 -0.7049
vn 0.0635 -0.2535 -0.9652
vn 0.0438 -0.2132 -0.9760
vn -0.1784 0.7328 -0.6566
vn 0.0533 -0.2087 -0.9765
vn -0.1649 0.7408 -0.6511
vn 0.0451 -0.2104 -0.9766
vn -0.1883 0.7410 -0.6445
vn 0.0221 -0.1173 -0.9928
vn -0.1966 0.7529 -0.6281
vn -0.1154 0.7373 -0.6655
vn 0.8043 0.5363 -0.2558
vn 0.9126 0.4084 0.0195
vn 0.8871 0.4404 -0.1380
vn 0.7457 0.6141 0.2585
vn 0.7476 0.5324 0.3969
vn -0.7845 0.4101 0.4651
vn -0.2545 0.1802 0.9501
vn -0.1724 0.0000 0.9850
vn -0.9327 0.0000 0.3607
vn 0.3967 0.0860 0.9139
vn 0.3864 -0.0129 0.9222
vn 0.2908 0.0000 0.9568
vn 0.6829 0.0000 0.7305
vn -0.2473 0.3543 0.9018
vn -0.1486 0.3738 0.9155
vn -0.0208 0.0000 0.9998
vn -0.0601 0.0000 0.9982
vn -0.1358 0.5581 0.8186
vn 0.2127 0.0000 0.9771
vn 0.7301 -0.6117 0.3045
vn 0.7641 -0.1768 0.6203
vn 0.7161 0.0000 0.6980
vn 0.2607 0.0000 -0.9654
vn -0.3750 0.3354 0.8642
vn 0.1880 0.1933 0.9629
vn 0.1665 0.0000 0.9860
vn -0.1366 0.0000 0.9906
vn -0.5731 0.3982 0.7162
vn 0.0148 0.3180 0.9480
vn 0.0012 0.0000 1.0000
vn -0.3408 0.0000 0.9401
vn -0.8133 0.3030 0.4967
vn -0.6357 0.0000 0.7719
vn 0.8165 -0.3228 0.4786
vn 0.8317 -0.3420 0.4374
vn 0.9542 0.0000 0.2991
vn 0.0497 0.3732 0.9264
vn 0.0878 0.0000 0.9961
vn -0.2442 0.3817 0.8914
vn -0.0835 0.0000 0.9965
vn 0.0178 0.3297 0.9439
vn 0.0687 0.0000 0.9976
vn 0.1304 -0.5484 -0.8260
vn 0.0000 0.0000 -1.0000
vn -0.7023 0.4277 0.5690
vn -0.3975 0.0000 0.9176
vn 0.1460 0.3023 0.9419
vn 0.3373 0.0000 0.9414
vn -0.6819 0.5055 0.5285
vn -0.6093 0.0000 0.7929
vn 0.1260 -0.5298 -0.8387
usemtl Mountain_01
s 1
f 38/1/1 26/2/2 2/3/3 9/4/4
f 28/5/5 30/6/6 13/7/7 14/8/8
f 30/9/6 32/10/9 12/11/10 13/12/7
f 32/13/9 34/14/11 11/15/12 12/16/10
f 34/17/11 36/18/13 10/19/14 11/20/12
f 36/21/13 38/22/1 9/23/4 10/24/14
f 13/12/7 12/11/10 15/25/15 16/26/16
f 11/20/12 10/19/14 17/27/17 18/28/18
f 9/4/4 2/3/3 19/29/19 20/30/20
f 10/24/14 9/23/4 21/31/21 22/32/22
f 18/28/18 17/27/17 23/33/23 24/34/24
f 7/35/25 8/36/26 37/37/27 35/38/28
f 35/38/28 37/37/27 38/22/1 36/21/13
f 6/39/29 7/40/25 35/41/28 33/42/30
f 33/42/30 35/41/28 36/18/13 34/17/11
f 5/43/31 6/44/29 33/45/30 31/46/32
f 31/46/32 33/45/30 34/14/11 32/13/9
f 4/47/33 5/48/31 31/49/32 29/50/34
f 29/50/34 31/49/32 32/10/9 30/9/6
f 3/51/35 4/52/33 29/53/34 27/54/36
f 27/54/36 29/53/34 30/6/6 28/5/5
f 8/55/26 1/56/37 25/57/38 37/58/27
f 37/58/27 25/57/38 26/2/2 38/1/1
f 26/59/2 25/60/38 41/61/39 42/62/40
f 25/60/38 1/63/37 39/64/41 41/61/39
f 2/65/3 26/59/2 42/62/40 40/66/42
f 62/67/43 90/68/44 79/69/45 51/70/46
f 68/71/47 96/72/48 73/73/49 45/74/50
f 55/75/51 83/76/52 84/77/53 56/78/54
f 61/79/55 89/80/56 90/68/44 62/67/43
f 44/81/57 72/82/58 97/83/59 69/84/60
f 52/85/61 80/86/62 87/87/63 59/88/64
f 53/89/65 81/90/66 82/91/67 54/92/68
f 60/93/69 88/94/70 81/95/66 53/96/65
f 70/97/71 98/98/72 95/99/72 67/100/73
f 54/101/68 82/102/67 85/103/74 57/104/75
f 69/84/60 97/83/59 98/98/72 70/97/71
f 58/105/76 86/106/77 83/107/52 55/108/51
f 67/100/73 95/99/72 96/72/48 68/71/47
f 59/88/64 87/87/63 93/109/78 65/110/79
f 50/111/80 78/112/81 71/113/81 43/114/80
f 57/104/75 85/103/74 86/106/77 58/105/76
f 66/115/82 94/116/83 88/94/70 60/93/69
f 49/117/80 77/118/81 78/119/81 50/120/80
f 65/110/79 93/109/78 94/116/83 66/115/82
f 48/121/80 76/122/81 77/123/81 49/124/80
f 51/125/46 79/126/45 91/127/84 63/128/85
f 47/129/80 75/130/81 76/131/81 48/132/80
f 64/133/86 92/134/87 80/135/62 52/136/61
f 46/137/88 74/138/81 75/139/81 47/140/80
f 4/47/33 47/129/80 48/132/80 5/48/31
f 9/23/4 51/125/46 63/128/85 21/31/21
f 5/43/31 48/121/80 49/124/80 6/44/29
f 23/33/23 65/110/79 66/115/82 24/34/24
f 6/39/29 49/117/80 50/120/80 7/40/25
f 24/34/24 66/115/82 60/93/69 18/28/18
f 15/25/15 57/104/75 58/105/76 16/26/16
f 7/35/25 50/111/80 43/114/80 8/36/26
f 17/27/17 59/88/64 65/110/79 23/33/23
f 42/62/40 67/100/73 68/71/47 40/66/42
f 16/26/16 58/105/76 55/108/51 13/12/7
f 39/64/41 69/84/60 70/97/71 41/61/39
f 12/11/10 54/101/68 57/104/75 15/25/15
f 41/61/39 70/97/71 67/100/73 42/62/40
f 18/28/18 60/93/69 53/96/65 11/20/12
f 11/15/12 53/89/65 54/92/68 12/16/10
f 10/19/14 52/85/61 59/88/64 17/27/17
f 1/63/37 44/81/57 69/84/60 39/64/41
f 19/29/19 61/79/55 62/67/43 20/30/20
f 13/7/7 55/75/51 56/78/54 14/8/8
f 40/66/42 68/71/47 45/74/50 2/65/3
f 20/30/20 62/67/43 51/70/46 9/4/4
f 8/55/26 43/141/80 44/142/57 1/56/37
f 2/3/3 45/143/50 61/79/55 19/29/19
f 21/31/21 63/128/85 64/133/86 22/32/22
f 3/51/35 46/137/88 47/140/80 4/52/33
f 22/32/22 64/133/86 52/136/61 10/24/14
f 43/141/80 71/144/81 72/145/58 44/142/57
f 45/143/50 73/146/49 89/80/56 61/79/55
f 63/128/85 91/127/84 92/134/87 64/133/86
f 136/147/89 107/148/90 100/149/91 124/150/92
f 126/151/93 112/152/94 111/153/95 128/154/96
f 128/155/96 111/156/95 110/157/97 130/158/98
f 130/159/98 110/160/97 109/161/99 132/162/100
f 132/163/100 109/164/99 108/165/101 134/166/102
f 134/167/102 108/168/101 107/169/90 136/170/89
f 111/156/95 114/171/103 113/172/104 110/157/97
f 109/164/99 116/173/105 115/174/106 108/165/101
f 107/148/90 118/175/107 117/176/108 100/149/91
f 108/168/101 120/177/109 119/178/110 107/169/90
f 116/173/105 122/179/111 121/180/112 115/174/106
f 105/181/113 133/182/114 135/183/115 106/184/116
f 133/182/114 134/167/102 136/170/89 135/183/115
f 104/185/117 131/186/118 133/187/114 105/188/113
f 131/186/118 132/163/100 134/166/102 133/187/114
f 103/189/119 129/190/120 131/191/118 104/192/117
f 129/190/120 130/159/98 132/162/100 131/191/118
f 102/193/121 127/194/122 129/195/120 103/196/119
f 127/194/122 128/155/96 130/158/98 129/195/120
f 101/197/123 125/198/124 127/199/122 102/200/121
f 125/198/124 126/151/93 128/154/96 127/199/122
f 106/201/116 135/202/115 123/203/125 99/204/126
f 135/202/115 136/147/89 124/150/92 123/203/125
f 124/205/92 140/206/127 139/207/128 123/208/125
f 123/208/125 139/207/128 137/209/129 99/210/126
f 100/211/91 138/212/130 140/206/127 124/205/92
f 160/213/131 149/214/132 177/215/133 188/216/134
f 166/217/135 143/218/136 171/219/137 194/220/138
f 153/221/139 154/222/140 182/223/141 181/224/142
f 159/225/143 160/213/131 188/216/134 187/226/144
f 142/227/145 167/228/146 195/229/147 170/230/148
f 150/231/149 157/232/150 185/233/151 178/234/152
f 151/235/153 152/236/154 180/237/155 179/238/156
f 158/239/157 151/240/153 179/241/156 186/242/158
f 168/243/159 165/244/160 193/245/161 196/246/161
f 152/247/154 155/248/162 183/249/163 180/250/155
f 167/228/146 168/243/159 196/246/161 195/229/147
f 156/251/164 153/252/139 181/253/142 184/254/165
f 165/244/160 166/217/135 194/220/138 193/245/161
f 157/232/150 163/255/166 191/256/167 185/233/151
f 148/257/168 141/258/168 169/259/169 176/260/169
f 155/248/162 156/251/164 184/254/165 183/249/163
f 164/261/170 158/239/157 186/242/158 192/262/171
f 147/263/168 148/264/168 176/265/169 175/266/169
f 163/255/166 164/261/170 192/262/171 191/256/167
f 146/267/168 147/268/168 175/269/169 174/270/169
f 149/271/132 161/272/172 189/273/173 177/274/133
f 145/275/168 146/276/168 174/277/169 173/278/169
f 162/279/174 150/280/149 178/281/152 190/282/175
f 144/283/176 145/284/168 173/285/169 172/286/169
f 102/193/121 103/196/119 146/276/168 145/275/168
f 107/169/90 119/178/110 161/272/172 149/271/132
f 103/189/119 104/192/117 147/268/168 146/267/168
f 121/180/112 122/179/111 164/261/170 163/255/166
f 104/185/117 105/188/113 148/264/168 147/263/168
f 122/179/111 116/173/105 158/239/157 164/261/170
f 113/172/104 114/171/103 156/251/164 155/248/162
f 105/181/113 106/184/116 141/258/168 148/257/168
f 115/174/106 121/180/112 163/255/166 157/232/150
f 140/206/127 138/212/130 166/217/135 165/244/160
f 114/171/103 111/156/95 153/252/139 156/251/164
f 137/209/129 139/207/128 168/243/159 167/228/146
f 110/157/97 113/172/104 155/248/162 152/247/154
f 139/207/128 140/206/127 165/244/160 168/243/159
f 116/173/105 109/164/99 151/240/153 158/239/157
f 109/161/99 110/160/97 152/236/154 151/235/153
f 108/165/101 115/174/106 157/232/150 150/231/149
f 99/210/126 137/209/129 167/228/146 142/227/145
f 117/176/108 118/175/107 160/213/131 159/225/143
f 111/153/95 112/152/94 154/222/140 153/221/139
f 138/212/130 100/211/91 143/218/136 166/217/135
f 118/175/107 107/148/90 149/214/132 160/213/131
f 106/201/116 99/204/126 142/287/145 141/288/168
f 100/149/91 117/176/108 159/225/143 143/289/136
f 119/178/110 120/177/109 162/279/174 161/272/172
f 101/197/123 102/200/121 145/284/168 144/283/176
f 120/177/109 108/168/101 150/280/149 162/279/174
f 141/288/168 142/287/145 170/290/148 169/291/169
f 143/289/136 159/225/143 187/226/144 171/292/137
f 161/272/172 162/279/174 190/282/175 189/273/173
