# Blender v2.90.1 OBJ File: 'Slope.blend'
# www.blender.org
mtllib slope_main_v03.mtl
o Main_slope_Cube.007
v 9.768001 0.000000 -0.000001
v 9.768001 36.774014 -0.000001
v -9.768001 0.000000 0.000001
v -9.768001 36.774014 0.000001
v -9.767993 -0.731857 101.000000
v 9.768008 -0.731857 101.000000
v 9.768008 16.042156 101.000000
v -9.767993 16.042156 101.000000
v 9.768008 -0.693851 99.683296
v 9.768008 -0.731857 100.317825
v 9.768008 -0.705597 99.796722
v 9.768008 -0.716190 99.930153
v 9.768008 -0.724598 100.070526
v 9.768008 -0.729998 100.204109
v 9.768008 16.080162 99.683296
v 9.768008 16.042156 100.317825
v 9.768008 16.068417 99.796722
v 9.768008 16.057823 99.930153
v 9.768008 16.049416 100.070526
v 9.768008 16.044016 100.204109
v -9.767993 -0.731857 100.317825
v -9.767993 -0.693851 99.683296
v -9.767993 -0.729998 100.204109
v -9.767993 -0.724598 100.070526
v -9.767993 -0.716190 99.930153
v -9.767993 -0.705597 99.796722
v -9.767993 16.080162 99.683296
v -9.767993 16.042156 100.317825
v -9.767993 16.068417 99.796722
v -9.767993 16.057823 99.930153
v -9.767993 16.049416 100.070526
v -9.767993 16.044016 100.204109
v -9.767993 -0.731857 100.829460
v -9.767993 -0.731857 100.658913
v -9.767993 -0.731857 100.488365
v 9.768008 -0.731857 100.488365
v 9.768008 -0.731857 100.658913
v 9.768008 -0.731857 100.829460
v 9.768008 16.042156 100.488365
v 9.768008 16.042156 100.658913
v 9.768008 16.042156 100.829460
v -9.767993 16.042156 100.488365
v -9.767993 16.042156 100.658913
v -9.767993 16.042156 100.829460
v 7.529809 0.000000 -0.000001
v 8.747730 0.000000 -0.000001
v 8.138769 0.000000 -0.000001
v -8.747730 0.000000 0.000001
v -7.529809 0.000000 0.000001
v -8.138769 0.000000 0.000001
v -7.529809 36.682899 0.000001
v -8.747009 36.716873 0.000001
v -8.139068 36.692848 0.000001
v 8.747009 36.716873 -0.000001
v 7.529809 36.682899 -0.000001
v 8.139068 36.692848 -0.000001
v -7.529801 -0.731857 101.000000
v -8.747695 -0.731857 101.000000
v -8.138748 -0.731857 101.000000
v 8.747710 -0.731857 101.000000
v 7.529817 -0.731857 101.000000
v 8.138763 -0.731857 101.000000
v 8.746979 15.985010 101.000000
v 7.529817 15.951039 101.000000
v 8.139065 15.960989 101.000000
v -7.529801 15.951039 101.000000
v -8.746964 15.985010 101.000000
v -8.139050 15.960989 101.000000
v -8.748247 -0.693851 99.683296
v -7.529801 -0.693851 99.683296
v -8.139025 -0.693851 99.683296
v 7.529817 -0.693851 99.683296
v 8.748262 -0.693851 99.683296
v 8.139040 -0.693851 99.683296
v 7.529817 -0.705597 99.796722
v 8.748632 -0.705597 99.796722
v 8.139224 -0.705597 99.796722
v -8.748617 -0.705597 99.796722
v -7.529801 -0.705597 99.796722
v -8.139209 -0.705597 99.796722
v 7.529817 -0.716190 99.930153
v 8.748877 -0.716190 99.930153
v 8.139346 -0.716190 99.930153
v -8.748861 -0.716190 99.930153
v -7.529801 -0.716190 99.930153
v -8.139331 -0.716190 99.930153
v 7.529817 -0.724598 100.070526
v 8.749015 -0.724598 100.070526
v 8.139416 -0.724598 100.070526
v -8.749000 -0.724598 100.070526
v -7.529801 -0.724598 100.070526
v -8.139400 -0.724598 100.070526
v 7.529817 -0.729998 100.204109
v 8.749059 -0.729998 100.204109
v 8.139438 -0.729998 100.204109
v -8.749043 -0.729998 100.204109
v -7.529801 -0.729998 100.204109
v -8.139422 -0.729998 100.204109
v 7.529817 -0.731857 100.317825
v 8.749011 -0.731857 100.317825
v 8.139414 -0.731857 100.317825
v -8.748996 -0.731857 100.317825
v -7.529801 -0.731857 100.317825
v -8.139399 -0.731857 100.317825
v 8.746309 16.022978 99.683296
v 7.529817 15.989044 99.683296
v 8.138868 15.998983 99.683296
v -7.529801 15.989044 99.683296
v -8.746294 16.022978 99.683296
v -8.138853 15.998983 99.683296
v -7.529801 15.977301 99.796722
v -8.745787 16.011206 99.796722
v -8.138704 15.987230 99.796722
v 8.745802 16.011206 99.796722
v 7.529817 15.977301 99.796722
v 8.138720 15.987230 99.796722
v -7.529801 15.966705 99.930153
v -8.745448 16.000591 99.930153
v -8.138606 15.976631 99.930153
v 8.745463 16.000591 99.930153
v 7.529817 15.966705 99.930153
v 8.138621 15.976631 99.930153
v -7.529801 15.958298 100.070526
v -8.745253 15.992173 100.070526
v -8.138549 15.968220 100.070526
v 8.745268 15.992173 100.070526
v 7.529817 15.958298 100.070526
v 8.138564 15.968220 100.070526
v -7.529801 15.952900 100.204109
v -8.745185 15.986771 100.204109
v -8.138528 15.962820 100.204109
v 8.745200 15.986771 100.204109
v 7.529817 15.952900 100.204109
v 8.138543 15.962820 100.204109
v -7.529801 15.951039 100.317825
v -8.745241 15.984915 100.317825
v -8.138545 15.960961 100.317825
v 8.745256 15.984915 100.317825
v 7.529817 15.951039 100.317825
v 8.138560 15.960961 100.317825
v 7.529817 -0.731857 100.488365
v 8.748868 -0.731857 100.488365
v 8.139342 -0.731857 100.488365
v -8.748853 -0.731857 100.488365
v -7.529801 -0.731857 100.488365
v -8.139327 -0.731857 100.488365
v 7.529817 -0.731857 100.658913
v 8.748619 -0.731857 100.658913
v 8.139217 -0.731857 100.658913
v -8.748604 -0.731857 100.658913
v -7.529801 -0.731857 100.658913
v -8.139202 -0.731857 100.658913
v 8.748242 -0.731857 100.829460
v 7.529817 -0.731857 100.829460
v 8.139030 -0.731857 100.829460
v -7.529801 -0.731857 100.829460
v -8.748227 -0.731857 100.829460
v -8.139014 -0.731857 100.829460
v -7.529801 15.951039 100.488365
v -8.745427 15.984924 100.488365
v -8.138599 15.960964 100.488365
v 8.745442 15.984924 100.488365
v 7.529817 15.951039 100.488365
v 8.138615 15.960964 100.488365
v -7.529801 15.951039 100.658913
v -8.745755 15.984943 100.658913
v -8.138697 15.960970 100.658913
v 8.745770 15.984943 100.658913
v 7.529817 15.951039 100.658913
v 8.138712 15.960970 100.658913
v -8.746255 15.984971 100.829460
v -7.529801 15.951039 100.829460
v -8.138842 15.960978 100.829460
v 7.529817 15.951039 100.829460
v 8.746270 15.984971 100.829460
v 8.138857 15.960978 100.829460
vt 0.193905 0.968693
vt 0.350265 0.969901
vt 0.350260 0.972630
vt 0.193899 0.971422
vt 0.988951 0.018304
vt 0.988951 0.603062
vt 0.972714 0.602154
vt 0.972726 0.018304
vt 0.035919 0.948758
vt 0.037040 0.948738
vt 0.037082 0.948902
vt 0.035894 0.948901
vt 0.350230 0.969895
vt 0.196693 0.969792
vt 0.196675 0.972528
vt 0.350212 0.972630
vt 0.349569 0.948069
vt 0.193209 0.946861
vt 0.007489 0.016165
vt 0.350281 0.018814
vt 0.982406 0.988335
vt 0.660185 0.988335
vt 0.661283 0.968722
vt 0.982406 0.968736
vt 0.344091 0.016389
vt 0.007489 0.016165
vt 0.196310 0.947910
vt 0.349847 0.948012
vt 0.035788 0.950297
vt 0.037193 0.950357
vt 0.037191 0.950601
vt 0.035777 0.950534
vt 0.952360 0.018286
vt 0.952349 0.601596
vt 0.712879 0.601591
vt 0.712891 0.018281
vt 0.050618 0.948922
vt 0.051810 0.948913
vt 0.051833 0.949086
vt 0.050585 0.949113
vt 0.039077 0.948911
vt 0.048621 0.948946
vt 0.048654 0.949145
vt 0.039045 0.949110
vt 0.048683 0.949345
vt 0.039017 0.949311
vt 0.048708 0.949537
vt 0.038993 0.949502
vt 0.048731 0.949710
vt 0.038971 0.949676
vt 0.196436 0.950644
vt 0.349973 0.950746
vt 0.196550 0.953378
vt 0.350087 0.953480
vt 0.196643 0.956113
vt 0.350180 0.956215
vt 0.196709 0.958848
vt 0.350246 0.958950
vt 0.196744 0.961584
vt 0.350281 0.961686
vt 0.613005 0.947232
vt 0.630573 0.946918
vt 0.630920 0.949450
vt 0.612518 0.950037
vt 0.445588 0.947602
vt 0.583619 0.947769
vt 0.584138 0.950696
vt 0.445071 0.950508
vt 0.584592 0.953638
vt 0.444621 0.953431
vt 0.584985 0.956451
vt 0.444236 0.956227
vt 0.585352 0.959006
vt 0.443879 0.958768
vt 0.349831 0.950798
vt 0.193470 0.949590
vt 0.350026 0.953527
vt 0.193666 0.952319
vt 0.350168 0.956256
vt 0.193808 0.955048
vt 0.350258 0.958985
vt 0.193897 0.957777
vt 0.350281 0.961714
vt 0.193921 0.960506
vt 0.396816 0.967365
vt 0.417632 0.968524
vt 0.417542 0.972128
vt 0.396604 0.970857
vt 0.048753 0.949923
vt 0.038950 0.949889
vt 0.048765 0.950132
vt 0.038938 0.950099
vt 0.048768 0.950339
vt 0.038936 0.950306
vt 0.196727 0.964320
vt 0.350264 0.964422
vt 0.196710 0.967056
vt 0.350247 0.967158
vt 0.585686 0.962124
vt 0.443554 0.961871
vt 0.585879 0.965206
vt 0.443372 0.964939
vt 0.585939 0.968254
vt 0.443325 0.967972
vt 0.350276 0.964443
vt 0.193916 0.963235
vt 0.350270 0.967172
vt 0.193910 0.965964
vt 0.397035 0.963881
vt 0.417663 0.964956
vt 0.611611 0.965148
vt 0.632230 0.964031
vt 0.632455 0.967513
vt 0.611651 0.968715
vt 0.397266 0.960411
vt 0.417633 0.961414
vt 0.050520 0.949901
vt 0.051902 0.949848
vt 0.051915 0.950086
vt 0.050515 0.950142
vt 0.397520 0.956968
vt 0.417531 0.957887
vt 0.611632 0.961607
vt 0.631991 0.960564
vt 0.035799 0.950061
vt 0.037191 0.950115
vt 0.051928 0.950325
vt 0.050513 0.950385
vt 0.035812 0.949826
vt 0.037185 0.949875
vt 0.399046 0.944646
vt 0.415606 0.944612
vt 0.416230 0.947038
vt 0.398661 0.946755
vt 0.035826 0.949593
vt 0.037175 0.949636
vt 0.982406 0.945341
vt 0.661936 0.945341
vt 0.661936 0.656052
vt 0.982407 0.656052
vt 0.982407 0.632657
vt 0.661283 0.632671
vt 0.660185 0.613058
vt 0.982407 0.613057
vt 0.611726 0.958080
vt 0.631731 0.957122
vt 0.397746 0.954665
vt 0.417336 0.955536
vt 0.611915 0.955729
vt 0.631500 0.954822
vt 0.398012 0.952016
vt 0.417080 0.952767
vt 0.612166 0.952960
vt 0.631230 0.952175
vt 0.398318 0.949289
vt 0.416721 0.949843
vt 0.446130 0.944864
vt 0.583073 0.945009
vt 0.613624 0.944807
vt 0.630185 0.944812
vt 0.050529 0.949661
vt 0.051886 0.949612
vt 0.035839 0.949437
vt 0.037160 0.949477
vt 0.050543 0.949501
vt 0.051872 0.949454
vt 0.035855 0.949258
vt 0.037142 0.949289
vt 0.050561 0.949312
vt 0.051854 0.949273
vt 0.035873 0.949073
vt 0.037116 0.949092
vt 0.039111 0.948723
vt 0.048586 0.948759
vt 0.050659 0.948757
vt 0.051783 0.948769
vt 0.630357 0.019826
vt 0.614215 0.020007
vt 0.692525 0.018298
vt 0.692513 0.602160
vt 0.676277 0.603068
vt 0.676299 0.018297
vt 0.581976 0.020184
vt 0.445344 0.020298
vt 0.413105 0.020013
vt 0.396961 0.019826
vt 0.051939 0.950564
vt 0.050515 0.950630
vt 0.048762 0.950544
vt 0.038942 0.950510
vt 0.585866 0.971264
vt 0.443414 0.970967
vt 0.632675 0.971003
vt 0.611751 0.972318
vt 0.035935 0.886111
vt 0.037027 0.886105
vt 0.039210 0.886089
vt 0.048661 0.886102
vt 0.430866 0.968542
vt 0.430809 0.965011
vt 0.598419 0.968771
vt 0.598463 0.965236
vt 0.430801 0.961490
vt 0.598460 0.961711
vt 0.430827 0.957946
vt 0.598425 0.958163
vt 0.038090 0.950349
vt 0.038084 0.950110
vt 0.049614 0.950380
vt 0.049619 0.950140
vt 0.038081 0.949870
vt 0.049622 0.949900
vt 0.038081 0.949630
vt 0.049621 0.949659
vt 0.038101 0.950591
vt 0.049604 0.950622
vt 0.430830 0.955586
vt 0.598415 0.955799
vt 0.430847 0.952760
vt 0.598393 0.952970
vt 0.430865 0.949742
vt 0.598369 0.949950
vt 0.430877 0.946835
vt 0.598353 0.947042
vt 0.430880 0.944358
vt 0.598346 0.944569
vt 0.038079 0.949469
vt 0.049622 0.949498
vt 0.038078 0.949277
vt 0.049622 0.949305
vt 0.038078 0.949071
vt 0.049621 0.949099
vt 0.038077 0.948874
vt 0.049621 0.948901
vt 0.038076 0.948706
vt 0.049622 0.948733
vt 0.038118 0.886097
vt 0.050845 0.886088
vt 0.049753 0.886095
vt 0.598096 0.020133
vt 0.429224 0.020168
vt 0.982407 0.957038
vt 0.661744 0.957044
vt 0.982407 0.644355
vt 0.661744 0.644349
vt 0.430983 0.972121
vt 0.598315 0.972352
vt 0.962541 0.018295
vt 0.962530 0.601763
vt 0.702709 0.018289
vt 0.702698 0.601758
vt 0.051939 0.886083
vn -1.0000 0.0000 0.0000
vn -0.0000 -0.0000 -1.0000
vn 0.0000 -0.9985 -0.0550
vn 0.0000 -0.9958 -0.0911
vn 1.0000 0.0000 0.0000
vn -0.0000 0.0000 1.0000
vn 0.0000 -1.0000 -0.0000
vn 0.0000 -0.9976 -0.0695
vn 0.0000 -0.9987 -0.0501
vn 0.0000 -0.9996 -0.0284
vn 0.0000 -1.0000 -0.0082
vn 0.0475 0.9947 0.0910
vn 0.0557 0.9943 0.0910
vn 0.0557 0.9960 0.0694
vn 0.0475 0.9965 0.0694
vn -0.0081 0.9958 0.0911
vn 0.0081 0.9958 0.0911
vn 0.0081 0.9976 0.0695
vn -0.0081 0.9976 0.0695
vn 0.0081 0.9987 0.0501
vn -0.0081 0.9987 0.0501
vn 0.0081 0.9996 0.0284
vn -0.0081 0.9996 0.0284
vn 0.0081 0.9999 0.0082
vn -0.0081 0.9999 0.0082
vn -0.0559 0.9984 0.0000
vn -0.0477 0.9989 -0.0000
vn 0.0082 1.0000 -0.0000
vn -0.0082 1.0000 -0.0000
vn 0.0477 0.9989 -0.0000
vn 0.0559 0.9984 0.0000
vn -0.0559 0.9984 0.0082
vn -0.0477 0.9988 0.0082
vn -0.0552 0.9866 0.1534
vn -0.0471 0.9871 0.1531
vn -0.0475 0.9947 0.0910
vn -0.0557 0.9943 0.0910
vn 0.0477 0.9988 0.0082
vn 0.0559 0.9984 0.0082
vn -0.0559 0.9980 0.0283
vn -0.0476 0.9985 0.0283
vn 0.0476 0.9985 0.0283
vn 0.0559 0.9980 0.0283
vn -0.0558 0.9972 0.0500
vn -0.0476 0.9976 0.0500
vn 0.0476 0.9976 0.0500
vn 0.0558 0.9972 0.0500
vn -0.0557 0.9960 0.0694
vn -0.0475 0.9965 0.0694
vn -0.0081 0.9881 0.1533
vn 0.0081 0.9881 0.1533
vn 0.0471 0.9871 0.1531
vn 0.0552 0.9866 0.1534
vn 0.0547 0.9777 0.2030
vn 0.0467 0.9781 0.2030
vn 0.0080 0.9791 0.2033
vn -0.0080 0.9791 0.2033
vn -0.0467 0.9781 0.2030
vn -0.0547 0.9777 0.2030
vn 0.0000 -1.0000 -0.0070
vn -0.0279 0.9996 -0.0000
vn 0.0279 0.9996 -0.0000
vn -0.0279 0.9996 0.0082
vn 0.0279 0.9996 0.0082
vn -0.0279 0.9992 0.0284
vn 0.0279 0.9992 0.0284
vn -0.0278 0.9984 0.0501
vn 0.0278 0.9984 0.0501
vn -0.0278 0.9972 0.0695
vn 0.0278 0.9972 0.0695
vn -0.0278 0.9955 0.0911
vn 0.0278 0.9955 0.0911
vn -0.0276 0.9878 0.1532
vn 0.0276 0.9878 0.1532
vn 0.0274 0.9788 0.2032
vn -0.0274 0.9788 0.2032
usemtl slope_01
s 1
f 44/1/1 33/2/1 5/3/1 8/4/1
f 3/5/2 4/6/2 52/7/2 48/8/2
f 22/9/3 69/10/3 78/11/4 26/12/4
f 38/13/5 41/14/5 7/15/5 6/16/5
f 22/17/1 27/18/1 4/19/1 3/20/1
f 6/21/6 7/22/6 63/23/6 60/24/6
f 1/25/5 2/26/5 15/27/5 9/28/5
f 33/29/7 157/30/7 58/31/7 5/32/7
f 49/33/2 51/34/2 55/35/2 45/36/2
f 76/37/4 11/38/4 12/39/8 82/40/8
f 79/41/4 75/42/4 81/43/8 85/44/8
f 85/44/8 81/43/8 87/45/9 91/46/9
f 91/46/9 87/45/9 93/47/10 97/48/10
f 97/48/10 93/47/10 99/49/11 103/50/11
f 9/28/5 15/27/5 17/51/5 11/52/5
f 11/52/5 17/51/5 18/53/5 12/54/5
f 12/54/5 18/53/5 19/55/5 13/56/5
f 13/56/5 19/55/5 20/57/5 14/58/5
f 14/58/5 20/57/5 16/59/5 10/60/5
f 112/61/12 29/62/13 30/63/14 118/64/15
f 115/65/16 111/66/17 117/67/18 121/68/19
f 121/68/19 117/67/18 123/69/20 127/70/21
f 127/70/21 123/69/20 129/71/22 133/72/23
f 133/72/23 129/71/22 135/73/24 139/74/25
f 27/18/1 22/17/1 26/75/1 29/76/1
f 29/76/1 26/75/1 25/77/1 30/78/1
f 30/78/1 25/77/1 24/79/1 31/80/1
f 31/80/1 24/79/1 23/81/1 32/82/1
f 32/82/1 23/81/1 21/83/1 28/84/1
f 41/85/26 175/86/27 63/87/27 7/88/26
f 103/50/11 99/49/11 141/89/7 145/90/7
f 145/90/7 141/89/7 147/91/7 151/92/7
f 151/92/7 147/91/7 154/93/7 156/94/7
f 10/60/5 16/59/5 39/95/5 36/96/5
f 36/96/5 39/95/5 40/97/5 37/98/5
f 37/98/5 40/97/5 41/14/5 38/13/5
f 139/74/25 135/73/24 159/99/28 163/100/29
f 163/100/29 159/99/28 165/101/28 169/102/29
f 169/102/29 165/101/28 172/103/28 174/104/29
f 28/84/1 21/83/1 35/105/1 42/106/1
f 42/106/1 35/105/1 34/107/1 43/108/1
f 43/108/1 34/107/1 33/2/1 44/1/1
f 40/109/26 168/110/27 175/86/27 41/85/26
f 166/111/30 43/112/31 44/113/31 171/114/30
f 39/115/26 162/116/27 168/110/27 40/109/26
f 142/117/7 36/118/7 37/119/7 148/120/7
f 16/121/32 138/122/33 162/116/27 39/115/26
f 160/123/30 42/124/31 43/112/31 166/111/30
f 34/125/7 150/126/7 157/30/7 33/29/7
f 148/120/7 37/119/7 38/127/7 153/128/7
f 35/129/7 144/130/7 150/126/7 34/125/7
f 15/131/34 105/132/35 114/133/36 17/134/37
f 21/135/11 102/136/11 144/130/7 35/129/7
f 61/137/6 64/138/6 66/139/6 57/140/6
f 58/141/6 67/142/6 8/143/6 5/144/6
f 136/145/38 28/146/39 42/124/31 160/123/30
f 20/147/40 132/148/41 138/122/33 16/121/32
f 130/149/42 32/150/43 28/146/39 136/145/38
f 19/151/44 126/152/45 132/148/41 20/147/40
f 124/153/46 31/154/47 32/150/43 130/149/42
f 18/155/48 120/156/49 126/152/45 19/151/44
f 118/64/15 30/63/14 31/154/47 124/153/46
f 17/134/37 114/133/36 120/156/49 18/155/48
f 106/157/50 108/158/51 111/66/17 115/65/16
f 109/159/52 27/160/53 29/62/13 112/61/12
f 100/161/11 10/162/11 36/118/7 142/117/7
f 23/163/10 96/164/10 102/136/11 21/135/11
f 94/165/10 14/166/10 10/162/11 100/161/11
f 24/167/9 90/168/9 96/164/10 23/163/10
f 88/169/9 13/170/9 14/166/10 94/165/10
f 25/171/8 84/172/8 90/168/9 24/167/9
f 82/40/8 12/39/8 13/170/9 88/169/9
f 26/12/4 78/11/4 84/172/8 25/171/8
f 70/173/3 72/174/3 75/42/4 79/41/4
f 73/175/3 9/176/3 11/38/4 76/37/4
f 4/177/54 27/160/53 109/159/52 52/178/55
f 46/179/2 54/180/2 2/181/2 1/182/2
f 51/183/56 108/158/51 106/157/50 55/184/57
f 54/185/58 105/132/35 15/131/34 2/186/59
f 153/128/7 38/127/7 6/187/7 60/188/7
f 156/94/7 154/93/7 61/189/7 57/190/7
f 174/104/29 172/103/28 66/191/28 64/192/29
f 171/114/30 44/113/31 8/193/31 67/194/30
f 22/9/3 3/195/60 48/196/60 69/10/3
f 70/173/3 49/197/60 45/198/60 72/174/3
f 169/102/29 174/104/29 176/199/61 170/200/61
f 170/200/61 176/199/61 175/86/27 168/110/27
f 166/111/30 171/114/30 173/201/62 167/202/62
f 167/202/62 173/201/62 172/103/28 165/101/28
f 163/100/29 169/102/29 170/200/61 164/203/61
f 164/203/61 170/200/61 168/110/27 162/116/27
f 160/123/30 166/111/30 167/202/62 161/204/62
f 161/204/62 167/202/62 165/101/28 159/99/28
f 139/74/25 163/100/29 164/203/61 140/205/63
f 140/205/63 164/203/61 162/116/27 138/122/33
f 136/145/38 160/123/30 161/204/62 137/206/64
f 137/206/64 161/204/62 159/99/28 135/73/24
f 151/92/7 156/94/7 158/207/7 152/208/7
f 152/208/7 158/207/7 157/30/7 150/126/7
f 148/120/7 153/128/7 155/209/7 149/210/7
f 149/210/7 155/209/7 154/93/7 147/91/7
f 145/90/7 151/92/7 152/208/7 146/211/7
f 146/211/7 152/208/7 150/126/7 144/130/7
f 142/117/7 148/120/7 149/210/7 143/212/7
f 143/212/7 149/210/7 147/91/7 141/89/7
f 103/50/11 145/90/7 146/211/7 104/213/11
f 104/213/11 146/211/7 144/130/7 102/136/11
f 100/161/11 142/117/7 143/212/7 101/214/11
f 101/214/11 143/212/7 141/89/7 99/49/11
f 156/94/7 57/190/7 59/215/7 158/207/7
f 158/207/7 59/215/7 58/31/7 157/30/7
f 153/128/7 60/188/7 62/216/7 155/209/7
f 155/209/7 62/216/7 61/189/7 154/93/7
f 133/72/23 139/74/25 140/205/63 134/217/65
f 134/217/65 140/205/63 138/122/33 132/148/41
f 130/149/42 136/145/38 137/206/64 131/218/66
f 131/218/66 137/206/64 135/73/24 129/71/22
f 127/70/21 133/72/23 134/217/65 128/219/67
f 128/219/67 134/217/65 132/148/41 126/152/45
f 124/153/46 130/149/42 131/218/66 125/220/68
f 125/220/68 131/218/66 129/71/22 123/69/20
f 121/68/19 127/70/21 128/219/67 122/221/69
f 122/221/69 128/219/67 126/152/45 120/156/49
f 118/64/15 124/153/46 125/220/68 119/222/70
f 119/222/70 125/220/68 123/69/20 117/67/18
f 115/65/16 121/68/19 122/221/69 116/223/71
f 116/223/71 122/221/69 120/156/49 114/133/36
f 112/61/12 118/64/15 119/222/70 113/224/72
f 113/224/72 119/222/70 117/67/18 111/66/17
f 106/157/50 115/65/16 116/223/71 107/225/73
f 107/225/73 116/223/71 114/133/36 105/132/35
f 109/159/52 112/61/12 113/224/72 110/226/74
f 110/226/74 113/224/72 111/66/17 108/158/51
f 97/48/10 103/50/11 104/213/11 98/227/10
f 98/227/10 104/213/11 102/136/11 96/164/10
f 94/165/10 100/161/11 101/214/11 95/228/10
f 95/228/10 101/214/11 99/49/11 93/47/10
f 91/46/9 97/48/10 98/227/10 92/229/9
f 92/229/9 98/227/10 96/164/10 90/168/9
f 88/169/9 94/165/10 95/228/10 89/230/9
f 89/230/9 95/228/10 93/47/10 87/45/9
f 85/44/8 91/46/9 92/229/9 86/231/8
f 86/231/8 92/229/9 90/168/9 84/172/8
f 82/40/8 88/169/9 89/230/9 83/232/8
f 83/232/8 89/230/9 87/45/9 81/43/8
f 79/41/4 85/44/8 86/231/8 80/233/4
f 80/233/4 86/231/8 84/172/8 78/11/4
f 76/37/4 82/40/8 83/232/8 77/234/4
f 77/234/4 83/232/8 81/43/8 75/42/4
f 70/173/3 79/41/4 80/233/4 71/235/3
f 71/235/3 80/233/4 78/11/4 69/10/3
f 73/175/3 76/37/4 77/234/4 74/236/3
f 74/236/3 77/234/4 75/42/4 72/174/3
f 49/197/60 70/173/3 71/235/3 50/237/60
f 50/237/60 71/235/3 69/10/3 48/196/60
f 46/238/60 73/175/3 74/236/3 47/239/60
f 47/239/60 74/236/3 72/174/3 45/198/60
f 108/158/51 51/183/56 53/240/75 110/226/74
f 110/226/74 53/240/75 52/178/55 109/159/52
f 105/132/35 54/185/58 56/241/76 107/225/73
f 107/225/73 56/241/76 55/184/57 106/157/50
f 64/138/6 61/137/6 62/242/6 65/243/6
f 65/243/6 62/242/6 60/24/6 63/23/6
f 67/142/6 58/141/6 59/244/6 68/245/6
f 68/245/6 59/244/6 57/140/6 66/139/6
f 174/104/29 64/192/29 65/246/61 176/199/61
f 176/199/61 65/246/61 63/87/27 175/86/27
f 171/114/30 67/194/30 68/247/62 173/201/62
f 173/201/62 68/247/62 66/191/28 172/103/28
f 51/34/2 49/33/2 50/248/2 53/249/2
f 53/249/2 50/248/2 48/8/2 52/7/2
f 54/180/2 46/179/2 47/250/2 56/251/2
f 56/251/2 47/250/2 45/36/2 55/35/2
f 73/175/3 46/238/60 1/252/60 9/176/3
